/* XPM */
static char *_68ca99dd5654a4aadf0954ad9fa687eiHbSfr2dxUc1eqSt[] = {
/* columns rows colors chars-per-pixel */
"16 16 18 1 ",
"  c None",
". c #1B4B3B",
"X c #2B7159",
"o c #33876B",
"O c #3EA985",
"+ c #43B991",
"@ c #42C79A",
"# c #58C29E",
"$ c #4ECAA0",
"% c #5ACEA6",
"& c #63C6A4",
"* c #6ECAAB",
"= c #66D1AC",
"- c #72D5B2",
"; c #74F1C7",
": c #82F2CD",
"> c #90F3D3",
", c #9EF4D8",
/* pixels */
"                ",
"                ",
"    :;:,:;,,    ",
"   ;%#$@$%$=:   ",
"  ;=&@@@@$@=-;  ",
"  ,*@@@@@@@@%>  ",
"  ;@@XX@@XX@$;  ",
"  :@@%.@@.%@@,  ",
"  ,@@@@@@@@@@;  ",
"  ;O@@@oo@@@+>  ",
"  ,+@@@$$@@@O;  ",
"   ;@+@@@@+@;   ",
"    ;O+%$O+;    ",
"     ,;>;;:     ",
"                ",
"                "
};
