/* XPM */
static char *_749a36339c54bca8234c5a638c8d304kB3hF6rouaHbqAuw[] = {
/* columns rows colors chars-per-pixel */
"16 16 9 1 ",
"  c None",
". c #182018",
"X c #1C2C1D",
"o c #2C402D",
"O c #2F4230",
"+ c #334834",
"@ c #394D3A",
"# c #3D513E",
"$ c #415542",
/* pixels */
"                ",
"                ",
"    ........    ",
"   ..OooOOo..   ",
"   .@@OOoo@#.   ",
"   .$@@@@@@@.   ",
"   .#XX@@XX@.   ",
"   .@@.@@.@$.   ",
"   .@@@@@@@@.   ",
"   .$@@XX@@@.   ",
"   .+@@@@@@+.   ",
"    .+#@@$+.    ",
"     ......     ",
"                ",
"                ",
"                "
};
