/* XPM */
static char *_e2c1a6620ed4975fa779f03b7e8530drBti4jcEHb2MmKnE[] = {
/* columns rows colors chars-per-pixel */
"64 64 39 1 ",
"  c None",
". c black",
"X c #1E1C18",
"o c #26241F",
"O c #2E2C26",
"+ c #322F23",
"@ c #273E2B",
"# c #36342D",
"$ c #3B3729",
"% c #3E3C34",
"& c #443F2F",
"* c #652727",
"= c #762E2E",
"- c #7B2F2F",
"; c #304E35",
": c #4D4735",
"> c #564F3B",
", c #143249",
"< c #163751",
"1 c #173A55",
"2 c #3C6042",
"3 c #3C6043",
"4 c #1A4261",
"5 c #1D4A6D",
"6 c #5F5741",
"7 c #565449",
"8 c #685F47",
"9 c #426949",
"0 c #476F4E",
"q c #48724F",
"w c #487250",
"e c #4E7B55",
"r c #71674D",
"t c #7A6F53",
"y c #913737",
"u c #943B3B",
"i c #9C3B3B",
"p c #A73F3F",
"a c #54845B",
/* pixels */
"                                                                ",
"                                                                ",
"                                                                ",
"                                                                ",
"                                                                ",
"                                                                ",
"                                                                ",
"                                                                ",
"                                                                ",
"                                                                ",
"                                                                ",
"                           ...ooooo                             ",
"                          ..........o                           ",
"                          ..........o                           ",
"                          ...q......o                           ",
"                          ..qqqqq.q..                           ",
"                          @0@@@q@@@0@                           ",
"                          @0030q0300@                           ",
"                          @0qqq9qqq0@                           ",
"                          @0qqq9qqq0@                           ",
"                          @3qqqi-qq3@                           ",
"                          @3qq@@@pq3@                           ",
"                       ++++@3qu-ui3@                            ",
"                     ++:::::@i*ipp@p+                           ",
"                    +:>868:8p*wy3uup8++@                        ",
"                    +:y:::6:p-p@ppyy::+9@@                      ",
"                    +::y-8:::ppq3$p6r88+99@                     ",
"                    +:++@>6>6r$qe&66:t>+q9@                     ",
"                    ++q6+@@-r:$@9$66$$+9qpy                     ",
"                    @96+9qq@:$q@9:6+:6+qp=p                     ",
"                     ++9q@9@:$999$6aa:+q9y                      ",
"                     @+qq9@:$9q9q$6aq++qp=                      ",
"                      @q99@:$q39q$:q9@ @9yp                     ",
"                       @@@::$@qq$::69@ @9u=p                    ",
"                        +:::$99q$::$>@ @q9u@                    ",
"                         +:6:$q9$:6>$:  @q9y@                   ",
"                         +:>r$9;$:6t>$+ @qq3@                   ",
"                        +:::r$q99$:66:+  @qq@                   ",
"                        +:$$:$,,,$6:::+ @eq3q@                  ",
"                        +++::$555$::++, @q@qq@                  ",
"                        ,55+++155+++54,  @@@@                   ",
"                        ,455155455,54,                          ",
"                        ,4455,5454451@                          ",
"                        ,411555515119@                          ",
"                        ,1e1555,4554a@                          ",
"                        1upq155,54541@                          ",
"                         *=p455,515454,                         ",
"                          *u155,545455,                         ",
"                         *=1454,5455,5,                         ",
"                        ,pu5154,555515,                         ",
"                        ,555554,515545,                         ",
"                        ,145454,545,55,                         ",
"                         @a54<<,559ea5,                         ",
"                         @eae@   @eae@                          ",
"                         XXXX@   @XXXX                          ",
"                        Xo#OoX   XoO#oX                         ",
"                        o7ooOo   oOoo7o                         ",
"                        X%OOoX   XoOOoX                         ",
"                        #XXXX#   #XXXX#                         ",
"                                                                ",
"                                                                ",
"                                                                ",
"                                                                ",
"                                                                "
};
