/* XPM */
static char *a842ae7a23a2475ecfcbc2dbc5586e4cU1dMT10F96qqZo0X[] = {
/* columns rows colors chars-per-pixel */
"64 64 41 1 ",
"  c None",
". c black",
"X c #1E1C18",
"o c #26241F",
"O c #2E2C26",
"+ c #322F23",
"@ c #273E2B",
"# c #36342D",
"$ c #3B3729",
"% c #3E3C34",
"& c #443F2F",
"* c #652727",
"= c #762E2E",
"- c #7B2F2F",
"; c #304E35",
": c #4D4735",
"> c #564F3B",
", c #143249",
"< c #163751",
"1 c #173A55",
"2 c #3C6042",
"3 c #3C6043",
"4 c #1A4261",
"5 c #1D4A6D",
"6 c #5F5741",
"7 c #565449",
"8 c #685F47",
"9 c #426949",
"0 c #476F4E",
"q c #48724F",
"w c #487250",
"e c #4E7B55",
"r c #71674D",
"t c #7A6F53",
"y c #863333",
"u c #913737",
"i c #943B3B",
"p c #9C3B3B",
"a c #A73F3F",
"s c #837759",
"d c #54845B",
/* pixels */
"                                                                ",
"                                                                ",
"                                                                ",
"                                                                ",
"                                                                ",
"                                                                ",
"                                                                ",
"                                                                ",
"                                                                ",
"                                                                ",
"                            ...ooooo                            ",
"                           ..........o                          ",
"                           ..........o                          ",
"                           ...q......o                          ",
"                           ..qqqqq.q..                          ",
"                           @0@@@q@@@0@                          ",
"                           @0q3qqq3q0@                          ",
"                           @0qqq9qqq0@                          ",
"                           @0qqq9qqq0@                          ",
"                           @3qqqp-qq3@                          ",
"                           @3qq@@@aq3@                          ",
"                            @3qi-ip3@                           ",
"                        +++++@p*paa@+                           ",
"                      ++:::::*uauaiya++                         ",
"                     +:>8:::8a*wu3iia8:+@                       ",
"                     +::u68::a-a@aauu:889@@                     ",
"                     +:a8-::::aaq3$a6rt>+99@                    ",
"                     ++:>:>6>6r$qe&66:6++q9@                    ",
"                    @q+:8+$--r:$@9$66$$+9qq@                    ",
"                    @qq+:+:u6:$q@9:6::6+9qau                    ",
"                    @qq+++6s::$999$6dd:+qa=a                    ",
"                    @q39@+:>:$9q9q$6dq:+q9u                     ",
"                    +@q99+>:6$q39q$:q9@ qa=                     ",
"                   +:+eq9+:::$@qq$::69@ @9ua                    ",
"                   +r:+q@+:::$99q$::$>@ @9i=a                   ",
"                    +:8+@ +:6:$q9$:6>$: @qau@                   ",
"                    +:::+ +:>r$9;$:6t>$+@q9i@                   ",
"                   +6>:+ +:::r$q99$:66:+ @9a9@                  ",
"                  +::+++ +:$$:$,,,$6:::+ @9qi@                  ",
"                 +8>+9q@ +++::$555$::++,@q9u@                   ",
"                  @qqqq@ ,55+++155+++54,@qq3@                   ",
"                   @@@@ ,455155455,54,,  @qq@                   ",
"                        ,4455,5454451@  @eq3q@                  ",
"                        ,411555515119@  @q@qq@                  ",
"                         =*,,55,4554d@   @@@@                   ",
"                         i*55,5,54541@                          ",
"                         *=1454,515454,                         ",
"                        ,ai5154,545455,                         ",
"                        ,555554,5455,5,                         ",
"                        ,145454,555515,                         ",
"                         @d54<<,515545,                         ",
"                         @ede@ ,545,55,                         ",
"                         XXXX@ ,559ed5,                         ",
"                        Xo#OoX   @ede@                          ",
"                        o7ooOo   @XXXX                          ",
"                        X%OOoX   XoO#oX                         ",
"                        #XXXX#   oOoo7o                         ",
"                                 XoOOoX                         ",
"                                 #XXXX#                         ",
"                                                                ",
"                                                                ",
"                                                                ",
"                                                                ",
"                                                                "
};
