/* XPM */
static char *result[] = {
/* columns rows colors chars-per-pixel */
"64 64 40 1 ",
"  c black",
". c #1E1C18",
"X c #26241F",
"o c #2E2C26",
"O c #322F23",
"+ c #273E2B",
"@ c #36342D",
"# c #3B3729",
"$ c #3E3C34",
"% c #443F2F",
"& c #652727",
"* c #762E2E",
"= c #7B2F2F",
"- c #304E35",
"; c #4D4735",
": c #564F3B",
"> c #143249",
", c #163751",
"< c #173A55",
"1 c #3C6042",
"2 c #3C6043",
"3 c #1A4261",
"4 c #1D4A6D",
"5 c #5F5741",
"6 c #565449",
"7 c #685F47",
"8 c #426949",
"9 c #476F4E",
"0 c #48724F",
"q c #487250",
"w c #4E7B55",
"e c #71674D",
"r c #7A6F53",
"t c #913737",
"y c #943B3B",
"u c #9C3B3B",
"i c #A73F3F",
"p c #837759",
"a c #54845B",
"s c None",
/* pixels */
"ssssssssssssssssssssssssssssssssssssssssssssssssssssssssssssssss",
"ssssssssssssssssssssssssssssssssssssssssssssssssssssssssssssssss",
"ssssssssssssssssssssssssssssssssssssssssssssssssssssssssssssssss",
"ssssssssssssssssssssssssssssssssssssssssssssssssssssssssssssssss",
"ssssssssssssssssssssssssssssssssssssssssssssssssssssssssssssssss",
"ssssssssssssssssssssssssssssssssssssssssssssssssssssssssssssssss",
"ssssssssssssssssssssssssssssssssssssssssssssssssssssssssssssssss",
"ssssssssssssssssssssssssssssssssssssssssssssssssssssssssssssssss",
"ssssssssssssssssssssssssssssssssssssssssssssssssssssssssssssssss",
"ssssssssssssssssssssssssssssssssssssssssssssssssssssssssssssssss",
"ssssssssssssssssssssssssssssssssssssssssssssssssssssssssssssssss",
"sssssssssssssssssssssssssss   XXXXXsssssssssssssssssssssssssssss",
"ssssssssssssssssssssssssss          Xsssssssssssssssssssssssssss",
"ssssssssssssssssssssssssss          Xsssssssssssssssssssssssssss",
"ssssssssssssssssssssssssss   0      Xsssssssssssssssssssssssssss",
"ssssssssssssssssssssssssss  00000 0  sssssssssssssssssssssssssss",
"ssssssssssssssssssssssssss+9+++0+++9+sssssssssssssssssssssssssss",
"ssssssssssssssssssssssssss+992909299+sssssssssssssssssssssssssss",
"ssssssssssssssssssssssssss+900080009+sssssssssssssssssssssssssss",
"ssssssssssssssssssssssssss+900080009+sssssssssssssssssssssssssss",
"ssssssssssssssssssssssssss+2000u=002+sssssssssssssssssssssssssss",
"ssssssssssssssssssssssssss+200+++i02+sssssssssssssssssssssssssss",
"ssssssssssssssssssssssssssO+20y=yu2+ssssssssssssssssssssssssssss",
"sssssssssssssssssssssssOOO;;+u&uii+iOOO+ssssssssssssssssssssssss",
"sssssssssssssssssssssOO;;;;7i&qt1yyi7;O8++ssssssssssssssssssssss",
"ssssssssssssssssssssO;:757;;i=i+iitt;77O88+sssssssssssssssssssss",
"ssssssssssssssssssssO;;t=;;;;ii01#i5er:O08+sssssssssssssssssssss",
"ssssssssssssssssssssO;i7;:5:5e#0w%55;5O800+sssssssssssssssssssss",
"ssssssssssssssssssssOO;:O#==e;#+8#55##O80itsssssssssssssssssssss",
"sssssssssssssssssss+0O;7O;t5;#0+8;5O;5O0i*isssssssssssssssssssss",
"sssssssssssssssssss+00O;O5p;;#888#5aa;O08tssssssssssssssssssssss",
"sssssssssssssssssss+00OOO;:;#8080#5a0OO0i*ssssssssssssssssssssss",
"sssssssssssssssssss+018+O:;5#0180#;08+s+8tisssssssssssssssssssss",
"sssssssssssssssssss+088+O;;;#+00#;;58+s+8y*issssssssssssssssssss",
"ssssssssssssssssssO+088+O;;;#880#;;#:+s+0it+ssssssssssssssssssss",
"sssssssssssssssssO;Ow08+sO;5;#08#;5:#;s+08y+ssssssssssssssssssss",
"sssssssssssssssssOe;O0+ssO;:e#8-#;5r:#Os+8i8+sssssssssssssssssss",
"ssssssssssssssssssO;7O+sO;;;e#088#;55;Os+80y+sssssssssssssssssss",
"ssssssssssssssssssO;;;OsO;##;#>>>#5;;;Os+08t+sssssssssssssssssss",
"ssssssssssssssssssO5:;OsOOO;;#444#;;OO>s+001+sssssssssssssssssss",
"sssssssssssssssssO;;OOOs>44OOO<44OOO43>ss+00+sssssssssssssssssss",
"ssssssssssssssssO7:O80+s>344<44344>43>ss+w010+ssssssssssssssssss",
"sssssssssssssssss+0000+s>3344>434334<+ss+0+00+ssssssssssssssssss",
"ssssssssssssssssss++++ss>3<<4444<4<<8+sss++++sssssssssssssssssss",
"ssssssssssssssssssssssss><w<444>3443a+ssssssssssssssssssssssssss",
"ssssssssssssssssssssssss<yi0<44>4343<+ssssssssssssssssssssssssss",
"sssssssssssssssssssssssss&*i344>4<4343>sssssssssssssssssssssssss",
"ssssssssssssssssssssssssss&y<44>434344>sssssssssssssssssssssssss",
"sssssssssssssssssssssssss&*<343>4344>4>sssssssssssssssssssssssss",
"ssssssssssssssssssssssss>iy4<43>4444<4>sssssssssssssssssssssssss",
"ssssssssssssssssssssssss>444443>4<4434>sssssssssssssssssssssssss",
"ssssssssssssssssssssssss><34343>434>44>sssssssssssssssssssssssss",
"sssssssssssssssssssssssss+a43,,>448wa4>sssssssssssssssssssssssss",
"sssssssssssssssssssssssss+waw+sss+waw+ssssssssssssssssssssssssss",
"sssssssssssssssssssssssss....+sss+....ssssssssssssssssssssssssss",
"ssssssssssssssssssssssss.X@oX.sss.Xo@X.sssssssssssssssssssssssss",
"ssssssssssssssssssssssssX6XXoXsssXoXX6Xsssssssssssssssssssssssss",
"ssssssssssssssssssssssss.$ooX.sss.XooX.sssssssssssssssssssssssss",
"ssssssssssssssssssssssss@....@sss@....@sssssssssssssssssssssssss",
"ssssssssssssssssssssssssssssssssssssssssssssssssssssssssssssssss",
"ssssssssssssssssssssssssssssssssssssssssssssssssssssssssssssssss",
"ssssssssssssssssssssssssssssssssssssssssssssssssssssssssssssssss",
"ssssssssssssssssssssssssssssssssssssssssssssssssssssssssssssssss",
"ssssssssssssssssssssssssssssssssssssssssssssssssssssssssssssssss"
};
