/* XPM */
static char *_66353e8fb7f4fb3de5127541e55e29ed29sSOqwKrkZ87RG[] = {
/* columns rows colors chars-per-pixel */
"64 64 41 1 ",
"  c None",
". c black",
"X c #1E1C18",
"o c #26241F",
"O c #2E2C26",
"+ c #322F23",
"@ c #273E2B",
"# c #36342D",
"$ c #3B3729",
"% c #3E3C34",
"& c #443F2F",
"* c #652727",
"= c #762E2E",
"- c #7B2F2F",
"; c #304E35",
": c #4D4735",
"> c #564F3B",
", c #143249",
"< c #163751",
"1 c #173A55",
"2 c #3C6042",
"3 c #3C6043",
"4 c #1A4261",
"5 c #1D4A6D",
"6 c #5F5741",
"7 c #565449",
"8 c #685F47",
"9 c #426949",
"0 c #476F4E",
"q c #48724F",
"w c #487250",
"e c #4E7B55",
"r c #71674D",
"t c #7A6F53",
"y c #863333",
"u c #913737",
"i c #943B3B",
"p c #9C3B3B",
"a c #A73F3F",
"s c #837759",
"d c #54845B",
/* pixels */
"                                                                ",
"                                                                ",
"                                                                ",
"                                                                ",
"                                                                ",
"                                                                ",
"                                                                ",
"                                                                ",
"                                                                ",
"                          ...ooooo                              ",
"                         ..........o                            ",
"                         ..........o                            ",
"                         ...q......o                            ",
"                         ..qqqqq.q..                            ",
"                         @0@@@q@@@0@                            ",
"                         @0030q0300@                            ",
"                         @0qqq9qqq0@                            ",
"                         @0qqq9qqq0@                            ",
"                         @3qqqp-qq3@                            ",
"                         @3qq@@@aq3@                            ",
"                          @3qi-ip3@                             ",
"                           @p*paa@                              ",
"                         +++uiaa=y+++@@                         ",
"                       ++::*uauaiya::+9@@                       ",
"                      +:::8a*wu3iia8:8+99@                      ",
"                    ++:68::a-a@aauu:88+q9@                      ",
"                   +:>8-::::aaq3$a6rt>9qq@                      ",
"                   +::u:>6>6r$qe&66:6+9qau                      ",
"                   +:a8+$--r:$@9$66$$+qa=a                      ",
"                   ++:>+:u6:$q@9:6::6+q9u                       ",
"                  @q+:8+6s::$999$6dd:+qa=                       ",
"                  @qq+:+:>:$9q9q$6dq:+@9ua                      ",
"                  @qq+++>:6$q39q$:q9@ @9i=a                     ",
"                  @q39@+:::$@qq$::69@ @qau@                     ",
"                  @q99@+:::$99q$::$>@ @q9i@                     ",
"                 +@q99@ +:6:$q9$:6>$:  @9qi@                    ",
"                +:+eq9@ +:>r$9;$:6t>$+  @q9u@                   ",
"                 +r:+q@+:::r$q99$:66:+  @qq3@                   ",
"                  +:8+@+:$$:$,,,$6:::+   @qq@                   ",
"                  +:::++++::$555$::++,  @eq3q@                  ",
"                  +6>:+,55+++155+++54,  @q@qq@                  ",
"                 +::+++ ,455155455,54,   @@@@                   ",
"                +8>+9q@ ,4455,5454451@                          ",
"                 @qqqq@ ,411555515119@                          ",
"                  @@@@  ,1e1555,5,,,,,                          ",
"                        1iaq155,,55555,                         ",
"                         *=a455,555515,                         ",
"                          *i155,515545,                         ",
"                         *=1454,545,55,                         ",
"                        ,ai5154,559ed5,                         ",
"                        ,555554, @ede@                          ",
"                        ,145454, @XXXX                          ",
"                         @d54<<, XoO#oX                         ",
"                         @ede@   oOoo7o                         ",
"                         XXXX@   XoOOoX                         ",
"                        Xo#OoX   #XXXX#                         ",
"                        o7ooOo                                  ",
"                        X%OOoX                                  ",
"                        #XXXX#                                  ",
"                                                                ",
"                                                                ",
"                                                                ",
"                                                                ",
"                                                                "
};
