/* XPM */
static char *result[] = {
/* columns rows colors chars-per-pixel */
"64 64 41 1 ",
"  c black",
". c #1E1C18",
"X c #26241F",
"o c #2E2C26",
"O c #322F23",
"+ c #273E2B",
"@ c #36342D",
"# c #3B3729",
"$ c #3E3C34",
"% c #443F2F",
"& c #652727",
"* c #762E2E",
"= c #7B2F2F",
"- c #304E35",
"; c #4D4735",
": c #564F3B",
"> c #143249",
", c #163751",
"< c #173A55",
"1 c #3C6042",
"2 c #3C6043",
"3 c #1A4261",
"4 c #1D4A6D",
"5 c #5F5741",
"6 c #565449",
"7 c #685F47",
"8 c #426949",
"9 c #476F4E",
"0 c #48724F",
"q c #487250",
"w c #4E7B55",
"e c #71674D",
"r c #7A6F53",
"t c #863333",
"y c #913737",
"u c #943B3B",
"i c #9C3B3B",
"p c #A73F3F",
"a c #837759",
"s c #54845B",
"d c None",
/* pixels */
"dddddddddddddddddddddddddddddddddddddddddddddddddddddddddddddddd",
"dddddddddddddddddddddddddddddddddddddddddddddddddddddddddddddddd",
"dddddddddddddddddddddddddddddddddddddddddddddddddddddddddddddddd",
"dddddddddddddddddddddddddddddddddddddddddddddddddddddddddddddddd",
"dddddddddddddddddddddddddddddddddddddddddddddddddddddddddddddddd",
"dddddddddddddddddddddddddddddddddddddddddddddddddddddddddddddddd",
"dddddddddddddddddddddddddddddddddddddddddddddddddddddddddddddddd",
"dddddddddddddddddddddddddddddddddddddddddddddddddddddddddddddddd",
"dddddddddddddddddddddddddddddddddddddddddddddddddddddddddddddddd",
"dddddddddddddddddddddddddddddddddddddddddddddddddddddddddddddddd",
"dddddddddddddddddddddddddd   XXXXXdddddddddddddddddddddddddddddd",
"ddddddddddddddddddddddddd          Xdddddddddddddddddddddddddddd",
"ddddddddddddddddddddddddd          Xdddddddddddddddddddddddddddd",
"ddddddddddddddddddddddddd   0      Xdddddddddddddddddddddddddddd",
"ddddddddddddddddddddddddd  00000 0  dddddddddddddddddddddddddddd",
"ddddddddddddddddddddddddd+9+++0+++9+dddddddddddddddddddddddddddd",
"ddddddddddddddddddddddddd+992909299+dddddddddddddddddddddddddddd",
"ddddddddddddddddddddddddd+900080009+dddddddddddddddddddddddddddd",
"ddddddddddddddddddddddddd+900080009+dddddddddddddddddddddddddddd",
"ddddddddddddddddddddddddd+2000i=002+dddddddddddddddddddddddddddd",
"ddddddddddddddddddddddddd+200+++p02+dddddddddddddddddddddddddddd",
"dddddddddddddddddddddddddd+20u=ui2+ddddddddddddddddddddddddddddd",
"dddddddddddddddddddddddddOO+i&ipp+OOO++ddddddddddddddddddddddddd",
"dddddddddddddddddddddddOO;;&ypyputp;;O8++ddddddddddddddddddddddd",
"ddddddddddddddddddddddO;;;7p&qy1uup7;7O88+dddddddddddddddddddddd",
"ddddddddddddddddddddOO;57;;p=p+ppyy;77O08+dddddddddddddddddddddd",
"dddddddddddddddddddO;:7=;;;;pp01#p5er:800+dddddddddddddddddddddd",
"dddddddddddddddddddO;;y;:5:5e#0w%55;5O80pydddddddddddddddddddddd",
"dddddddddddddddddddO;p7O#==e;#+8#55##O0p*pdddddddddddddddddddddd",
"dddddddddddddddddddOO;:O;y5;#0+8;5;;5O08yddddddddddddddddddddddd",
"dddddddddddddddddd+0O;7O5a;;#888#5ss;O0p*ddddddddddddddddddddddd",
"dddddddddddddddddd+00O;O;:;#8080#5s0;O+8ypdddddddddddddddddddddd",
"dddddddddddddddddd+00OOO:;5#0180#;08+d+8u*pddddddddddddddddddddd",
"dddddddddddddddddd+018+O;;;#+00#;;58+d+0py+ddddddddddddddddddddd",
"dddddddddddddddddd+088+O;;;#880#;;#:+d+08u+ddddddddddddddddddddd",
"dddddddddddddddddO+088+dO;5;#08#;5:#;dd+00u+dddddddddddddddddddd",
"ddddddddddddddddO;Ow08+dO;:e#8-#;5r:#Od+80u+dddddddddddddddddddd",
"dddddddddddddddddOe;O0+O;;;e#088#;55;Odd+08y+ddddddddddddddddddd",
"ddddddddddddddddddO;7O+O;##;#>>>#5;;;Odd+001+ddddddddddddddddddd",
"ddddddddddddddddddO;;;OOOO;;#444#;;OO>ddd+00+ddddddddddddddddddd",
"ddddddddddddddddddO5:;O>44OOO<44OOO43>dd+w010+dddddddddddddddddd",
"dddddddddddddddddO;;OOOd>344<44344>43>dd+0+00+dddddddddddddddddd",
"ddddddddddddddddO7:O80+d>3344>434334<+ddd++++ddddddddddddddddddd",
"ddddddddddddddddd+0000+d>3<<4444<4<<8+dddddddddddddddddddddddddd",
"dddddddddddddddddd++++dd><w<444>34>>>+dddddddddddddddddddddddddd",
"dddddddddddddddddddddddd<up0<44>4>>>>>dddddddddddddddddddddddddd",
"ddddddddddddddddddddddddd&*p344>>44444>ddddddddddddddddddddddddd",
"dddddddddddddddddddddddddd&u<44>4444<4>ddddddddddddddddddddddddd",
"ddddddddddddddddddddddddd&*<343>4<4434>ddddddddddddddddddddddddd",
"dddddddddddddddddddddddd>pu4<43>434>44>ddddddddddddddddddddddddd",
"dddddddddddddddddddddddd>444443>448ws4>ddddddddddddddddddddddddd",
"dddddddddddddddddddddddd><34343>d+wsw+dddddddddddddddddddddddddd",
"ddddddddddddddddddddddddd+s43,,>d+....dddddddddddddddddddddddddd",
"ddddddddddddddddddddddddd+wsw+ddd.Xo@X.ddddddddddddddddddddddddd",
"ddddddddddddddddddddddddd....+dddXoXX6Xddddddddddddddddddddddddd",
"dddddddddddddddddddddddd.X@oX.ddd.XooX.ddddddddddddddddddddddddd",
"ddddddddddddddddddddddddX6XXoXddd@....@ddddddddddddddddddddddddd",
"dddddddddddddddddddddddd.$ooX.dddddddddddddddddddddddddddddddddd",
"dddddddddddddddddddddddd@....@dddddddddddddddddddddddddddddddddd",
"dddddddddddddddddddddddddddddddddddddddddddddddddddddddddddddddd",
"dddddddddddddddddddddddddddddddddddddddddddddddddddddddddddddddd",
"dddddddddddddddddddddddddddddddddddddddddddddddddddddddddddddddd",
"dddddddddddddddddddddddddddddddddddddddddddddddddddddddddddddddd",
"dddddddddddddddddddddddddddddddddddddddddddddddddddddddddddddddd"
};
