/* XPM */
static char *_d6052d68f00447596c1a4c4af0234dfHCcaKtxF3lsHhMUp[] = {
/* columns rows colors chars-per-pixel */
"64 64 14 1 ",
"  c None",
". c black",
"X c #26241F",
"o c #322F23",
"O c #273E2B",
"+ c #3B3729",
"@ c #443F2F",
"# c #7B2F2F",
"$ c #304E35",
"% c #4D4735",
"& c #564F3B",
"* c #4E7B55",
"= c #943B3B",
"- c #9C3B3B",
/* pixels */
"                                                                ",
"                                                                ",
"                                                                ",
"                                                                ",
"                                                                ",
"                                                                ",
"                                                                ",
"                                                                ",
"                                                                ",
"                                                                ",
"                                                                ",
"                                                                ",
"                                                                ",
"                                                                ",
"                                                                ",
"                                                                ",
"                                                                ",
"                                                                ",
"                                                                ",
"                                                                ",
"                                                                ",
"                                                                ",
"                                                                ",
"                                                                ",
"                                                                ",
"                                                                ",
"                                                                ",
"                                                                ",
"                                                                ",
"                                                                ",
"                                                                ",
"                                                                ",
"                                                                ",
"                                                                ",
"                                                                ",
"                                                                ",
"                                                                ",
"                                                                ",
"                                                                ",
"                                                                ",
"                                                                ",
"                                                                ",
"                                                                ",
"                                                                ",
"                                                                ",
"                                                                ",
"                                                                ",
"                                                                ",
"                                                                ",
"                                                                ",
"                        +o+          +oX                        ",
"                      Oo+&&oX++........+o                       ",
"                     O*o&%%+O*..........++                      ",
"                   OO*o+%&@O*$..........&XOO                    ",
"                  OO**+&oo%O*$..........%**OO                   ",
"                  O***X+o@%O*$..........%+**O                   ",
"                  O****%@&&O**..........&***O                   ",
"                -=OO**o&&@%O*$..........+o*OO=--                ",
"               --=#OO*++@o%O*$..........o*OO#=---               ",
"               ---=##OOXo&&O*$..........OO##=----               ",
"                ---==####o++O*O........o#===----                ",
"                  ---====#############===----                   ",
"                     --------------------                       ",
"                                                                "
};
