/* XPM */
static char *aa0f40ae5d3e4d33f23f1977a582a6756YnAGjnjgCmR0PQX[] = {
/* columns rows colors chars-per-pixel */
"64 64 40 1 ",
"  c None",
". c black",
"X c #1E1C18",
"o c #26241F",
"O c #2E2C26",
"+ c #322F23",
"@ c #273E2B",
"# c #36342D",
"$ c #3B3729",
"% c #3E3C34",
"& c #443F2F",
"* c #652727",
"= c #762E2E",
"- c #7B2F2F",
"; c #304E35",
": c #4D4735",
"> c #564F3B",
", c #143249",
"< c #163751",
"1 c #173A55",
"2 c #3C6042",
"3 c #3C6043",
"4 c #1A4261",
"5 c #1D4A6D",
"6 c #5F5741",
"7 c #565449",
"8 c #685F47",
"9 c #426949",
"0 c #476F4E",
"q c #48724F",
"w c #487250",
"e c #4E7B55",
"r c #71674D",
"t c #7A6F53",
"y c #913737",
"u c #943B3B",
"i c #9C3B3B",
"p c #A73F3F",
"a c #837759",
"s c #54845B",
/* pixels */
"                                                                ",
"                                                                ",
"                                                                ",
"                                                                ",
"                                                                ",
"                                                                ",
"                                                                ",
"                                                                ",
"                                                                ",
"                                                                ",
"                                                                ",
"                           ...ooooo                             ",
"                          ..........o                           ",
"                          ..........o                           ",
"                          ...q......o                           ",
"                          ..qqqqq.q..                           ",
"                          @0@@@q@@@0@                           ",
"                          @0030q0300@                           ",
"                          @0qqq9qqq0@                           ",
"                          @0qqq9qqq0@                           ",
"                          @3qqqi-qq3@                           ",
"                          @3qq@@@pq3@                           ",
"                          +@3qu-ui3@                            ",
"                       +++::@i*ipp@p+++@                        ",
"                     ++::::8p*wy3uup8:+9@@                      ",
"                    +:>868::p-p@ppyy:88+99@                     ",
"                    +::y-::::ppq3$p6rt>+q9@                     ",
"                    +:p8:>6>6r$qe&66:6+9qq@                     ",
"                    ++:>+$--r:$@9$66$$+9qpy                     ",
"                   @9+:8+:y6:$q@9:6+:6+qp=p                     ",
"                   @q9+:+6a::$999$6ss:+q9y                      ",
"                   @q9+++:>:$9q9q$6sq++qp=                      ",
"                 +@++9@ +>:6$q39q$:q9@ @9yp                     ",
"                  +6>++ +:::$@qq$::69@ @9u=p                    ",
"                  +::>+ +:::$99q$::$>@ @q9u@                    ",
"                 ++:6+   +:6:$q9$:6>$:  @9p9@                   ",
"                 @9++9@  +:>r$9;$:6t>$+ @9qu@                   ",
"                 @qqqq@ +:::r$q99$:66:+ @q9y@                   ",
"                 @qqq@@ +:$$:$,,,$6:::+ @qq3@                   ",
"                  @@@   +++::$555$::++,  @qq@                   ",
"                        ,55+++155+++54, @eq3q@                  ",
"                        ,455155455,54,  @q@qq@                  ",
"                        ,4455,5454451@   @@@@                   ",
"                        ,411555515119@                          ",
"                        ,1e1555,4554s@                          ",
"                        1upq155,54541@                          ",
"                         *=p455,515454,                         ",
"                          *u155,545455,                         ",
"                         *=1454,5455,5,                         ",
"                        ,pu5154,555515,                         ",
"                        ,555554,515545,                         ",
"                        ,145454,545,55,                         ",
"                         @s54<<,559es5,                         ",
"                         @ese@   @ese@                          ",
"                         XXXX@   @XXXX                          ",
"                        Xo#OoX   XoO#oX                         ",
"                        o7ooOo   oOoo7o                         ",
"                        X%OOoX   XoOOoX                         ",
"                        #XXXX#   #XXXX#                         ",
"                                                                ",
"                                                                ",
"                                                                ",
"                                                                ",
"                                                                "
};
