/* XPM */
static char *f647bc786c77409b8b746e20d8127a61JqxR1GVww8p1BEyS[] = {
/* columns rows colors chars-per-pixel */
"32 32 5 1 ",
"  c None",
". c #161D2A",
"X c #1C2535",
"o c #242F44",
"O c #243655",
/* pixels */
"                                ",
"                                ",
"                                ",
"                                ",
"                                ",
"                                ",
"                                ",
"                                ",
"                                ",
"        . .                .    ",
"        ....................    ",
"        .XXXXXXXXXXXXXXXXXXX.   ",
"       .Xooo.o.o.ooooooooooo.   ",
"       .XoO.O.O.OOOOOOOOOOoo.   ",
"      .XoOOOOOOOOOOOOOOOOooo.   ",
"      .XoOOOoX..............    ",
"     .XoOOOoX.o  .              ",
"     .XoOOOoX. o .              ",
"    .XoOOOoX.....               ",
"    .XoOOOoX.                   ",
"   .XoOOOoX.                    ",
"   .XoooooX.                    ",
"    .......                     ",
"                                ",
"                                ",
"                                ",
"                                ",
"                                ",
"                                ",
"                                ",
"                                ",
"                                "
};
