/* XPM */
static char *_c67f38a92cd40c8c16dc6164556f43fSepulKLo3XKJofpn[] = {
/* columns rows colors chars-per-pixel */
"64 64 45 1 ",
"  c None",
". c #121215",
"X c #151519",
"o c #1A1A1E",
"O c #161D2A",
"+ c #151E2F",
"@ c #1D222B",
"# c #1C2535",
"$ c #1E2635",
"% c #212126",
"& c #22262B",
"* c #24242C",
"= c #343925",
"- c #393D25",
"; c #272D35",
": c #2A2B39",
"> c #2B3036",
", c #2E3235",
"< c #5C5E1E",
"1 c #414233",
"2 c #6E622C",
"3 c #7B6B2E",
"4 c #7D6A32",
"5 c #242F44",
"6 c #243655",
"7 c #3D3E51",
"8 c #45465A",
"9 c #4B4C67",
"0 c #A9A413",
"q c #AA9924",
"w c #CFBC1E",
"e c #FFEF09",
"r c #FEEB0E",
"t c #FFEC0D",
"y c #FFF303",
"u c #FFF700",
"i c #FFF304",
"p c #FFF800",
"a c #FFF900",
"s c #FFFA00",
"d c #FFE814",
"f c #FFCD3E",
"g c #FFD532",
"h c #FFD335",
"j c #FFE021",
/* pixels */
"                                                                ",
"                                                                ",
"                                                                ",
"                                                                ",
"                                                                ",
"                                                                ",
"                                                                ",
"                                                                ",
"                                                                ",
"                                                                ",
"                                                                ",
"                                                                ",
"                                                                ",
"                                                                ",
"                                                                ",
"                         p                                      ",
"                         ppp                                    ",
"                         pp                                     ",
"                       ppupu<=OO                                ",
"                       ppie0-###O                               ",
"                       pptj2@5555O                              ",
"                      ppprw1#O5665O                             ",
"                       pydq,5#O5665O                            ",
"                        hg3;55#O5665O                           ",
"                        f4>5565#O5665O                          ",
"                         &#55665#O5665O                         ",
"                         O#566665#O5665O                        ",
"                         O#5666665#O5665O                       ",
"                          O#5666665O#5665O                      ",
"                           O#5666665O56665O                     ",
"                           O#5666+66#O56665O                    ",
"                            O#566++66#O56665O                   ",
"                             O#56+#+66#O56665O                  ",
"                              O#5+#++66#O5+5+5O                 ",
"                               O5+5+#+66#OOOOOO                 ",
"                               O#5++#+66OO####OO                ",
"                                O#5+5+66O#5555#O                ",
"                               XXO56++6O#56..65#O               ",
"                              XooXO56+6O#5.oo.5#O               ",
"                              Xo%oXO#66O#5.oo.5#OXX             ",
"                              Xo%%XOO#O#56....65#OXX            ",
"                             XXo%%XXO#O#566..665#OoXX           ",
"                            XoXo%*%XXOO#56666665#O%oXX          ",
"                            XoXo%**%XXOOOOOOOOOOOO%%oX          ",
"                           Xo%Xo%***%%XXXXXXXXXXXX%%oX          ",
"                           Xo%*Xo%****%%oooooooo%%**%oX         ",
"                           Xo%*Xo%*****%%%%%%%%%%***%oX         ",
"                          Xo%***Xo%*****************%oX         ",
"                         Xo%****Xo%*****************%oX         ",
"                         Xo%****Xo%*****************%oX         ",
"                         Xo%****Xo%*****************%oX         ",
"                          X******Xo%****************%oX         ",
"                          :******Xo%***************%oX          ",
"                         :77:*****Xo%*************%oX           ",
"                        :7887:*****Xo%************%oX           ",
"                       :789987::***Xo%***********%oX            ",
"                      :789999877::*Xo%***********%oX            ",
"                     :789999998877:XXo%****::::::::::::         ",
"                    :78999999999887:Xo%*::::77777777777:::      ",
"                   :7899999999999987:X::777788888888888777:     ",
"                  :78999999999999987::778888999999999998887:    ",
"                  :789999999999999987:7899999999999999999987:   ",
"                 :789999999999999987:789999999999999999999987:  ",
"                :7899999999999999987:7899999999999999999999987: "
};
