/* XPM */
static char *_644a6e6ccf34b58c820795f4006a02a7WI2oEzbxtGgtTt6[] = {
/* columns rows colors chars-per-pixel */
"64 64 34 1 ",
"  c None",
". c #121215",
"X c #151519",
"o c #1A1A1E",
"O c #161D2A",
"+ c #151E2F",
"@ c #1C2535",
"# c #1D2635",
"$ c #212126",
"% c #20262E",
"& c #24242C",
"* c #2A2F33",
"= c #242C38",
"- c #2A2B39",
"; c #2B323B",
": c #242F44",
"> c #243655",
", c #3D3E51",
"< c #404643",
"1 c #494E47",
"2 c #545645",
"3 c #45465A",
"4 c #4B4C67",
"5 c #89885D",
"6 c #868760",
"7 c #A6A46B",
"8 c #B3B071",
"9 c #B5B272",
"0 c #C0BC77",
"q c #D7D282",
"w c #FFF895",
"e c #FFF995",
"r c #FFF896",
"t c #FFF996",
/* pixels */
"                                                                ",
"                                                                ",
"                                                                ",
"                                                                ",
"                                                                ",
"                                                                ",
"                                                                ",
"                                                                ",
"                                                                ",
"                                                                ",
"                                                                ",
"                                                                ",
"                                                                ",
"                                                                ",
"                                                                ",
"                                                                ",
"                                                                ",
"                                                                ",
"                          w OOOO                                ",
"                         ww7%@@@O                               ",
"                         ww9*::::O                              ",
"                        wwq6@O:>>:O                             ",
"                        ww01:@O:>>:O                            ",
"                        ww5=::@O:>>:O                           ",
"                        w8<::>:@O:>>:O                          ",
"                         2;::>>:@O:>>:O                         ",
"                         O@:>>>>:@O:>>:O                        ",
"                         O@:>>>>>:@O:>>:O                       ",
"                          O@:>>>>>:O@:>>:O                      ",
"                           O@:>>>>>:O:>>>:O                     ",
"                           O@:>>>+>>@O:>>>:O                    ",
"                            O@:>>++>>@O:>>>:O                   ",
"                             O@:>+@+>>@O:>>>:O                  ",
"                              O@:+@++>>@O:+:+:O                 ",
"                               O:+:+@+>>@OOOOOO                 ",
"                               O@:++@+>>OO@@@@OO                ",
"                                O@:+:+>>O@::::@O                ",
"                               XXO:>++>O@:>..>:@O               ",
"                              XooXO:>+>O@:.oo.:@O               ",
"                              Xo$oXO@>>O@:.oo.:@OXX             ",
"                              Xo$$XOO@O@:>....>:@OXX            ",
"                             XXo$$XXO@O@:>>..>>:@OoXX           ",
"                            XoXo$&$XXOO@:>>>>>>:@O$oXX          ",
"                            XoXo$&&$XXOOOOOOOOOOOO$$oX          ",
"                           Xo$Xo$&&&$$XXXXXXXXXXXX$$oX          ",
"                           Xo$&Xo$&&&&$$oooooooo$$&&$oX         ",
"                           Xo$&Xo$&&&&&$$$$$$$$$$&&&$oX         ",
"                          Xo$&&&Xo$&&&&&&&&&&&&&&&&&$oX         ",
"                         Xo$&&&&Xo$&&&&&&&&&&&&&&&&&$oX         ",
"                         Xo$&&&&Xo$&&&&&&&&&&&&&&&&&$oX         ",
"                         Xo$&&&&Xo$&&&&&&&&&&&&&&&&&$oX         ",
"                          X&&&&&&Xo$&&&&&&&&&&&&&&&&$oX         ",
"                          -&&&&&&Xo$&&&&&&&&&&&&&&&$oX          ",
"                         -,,-&&&&&Xo$&&&&&&&&&&&&&$oX           ",
"                        -,33,-&&&&&Xo$&&&&&&&&&&&&$oX           ",
"                       -,3443,--&&&Xo$&&&&&&&&&&&$oX            ",
"                      -,344443,,--&Xo$&&&&&&&&&&&$oX            ",
"                     -,344444433,,-XXo$&&&&------------         ",
"                    -,344444444433,-Xo$&----,,,,,,,,,,,---      ",
"                   -,34444444444443,-X--,,,,33333333333,,,-     ",
"                  -,344444444444443,--,,333344444444444333,-    ",
"                  -,3444444444444443,-,34444444444444444443,-   ",
"                 -,3444444444444443,-,3444444444444444444443,-  ",
"                -,34444444444444443,-,34444444444444444444443,- "
};
