/* XPM */
static char *c3a3c2f255944ec5f7c01f9a121a3ecc4GuqCLeZNLYUdFzp[] = {
/* columns rows colors chars-per-pixel */
"64 64 15 1 ",
"  c None",
". c #121215",
"X c #151519",
"o c #1A1A1E",
"O c #161D2A",
"+ c #151E2F",
"@ c #1C2535",
"# c #212126",
"$ c #24242C",
"% c #2A2B39",
"& c #242F44",
"* c #243655",
"= c #3D3E51",
"- c #45465A",
"; c #4B4C67",
/* pixels */
"                                                                ",
"                                                                ",
"                                                                ",
"                                                                ",
"                                                                ",
"                                                                ",
"                                                                ",
"                                                                ",
"                                                                ",
"                                                                ",
"                                                                ",
"                                                                ",
"                                                                ",
"                                                                ",
"                                                                ",
"                                                                ",
"                                                                ",
"                                                                ",
"                                                                ",
"                                                                ",
"                                                                ",
"                               OOOO                             ",
"                              OO@@@O                            ",
"                              OO&&&&O                           ",
"                             O@@O&**&O                          ",
"                             O@&@O&**&O                         ",
"                             O@&&@O&**&O                        ",
"                            O@&&*&@O&**&O                       ",
"                            O@&&**&@O&**&O                      ",
"                            O@&****&@O&**&O                     ",
"                            O@&*****&@O&**&O                    ",
"                             O@&*****&O@&**&O                   ",
"                              O@&*****&O&***&O                  ",
"                              O@&***+**@O&***&O                 ",
"                               O@&**++**@O&***&O                ",
"                                O@&*+@+**@O&***&O               ",
"                                 O@&+@++**@O&+&+&O              ",
"                                  O&+&+@+**@OOOOOO              ",
"                                XXO@&++@+**OO@@@@OO             ",
"                               XooXO@&+&+**O@&&&&@O             ",
"                               Xo#oXO&*++*O@&*..*&@O            ",
"                               Xo##XOO&*+*O@&.oo.&@OX           ",
"                              XXo##XXOO@**O@&.oo.&@OXX          ",
"                             XoXo#$#XXOO@O@&*....*&@OXX         ",
"                             XoXo#$$#XXO@O@&**..**&@OoX         ",
"                            Xo#Xo#$$$##XOO@&******&@OoX         ",
"                            Xo#$Xo#$$$$#XOOOOOOOOOOOO#oX        ",
"                            Xo#$Xo#$$$$$#XXXXXXXXXXX##oX        ",
"                           Xo#$$$Xo#$$$$$##oooooooo###oX        ",
"                          Xo#$$$$Xo#$$$$$$##########$#oX        ",
"                          Xo#$$$$Xo#$$$$$$$$$$$$$$$$$#oX        ",
"                          Xo#$$$$Xo#$$$$$$$$$$$$$$$$$#oX        ",
"                           X$$$$$$Xo#$$$$$$$$$$$$$$$$#oX        ",
"                           %$$$$$$Xo#$$$$$$$$$$$$$$$#oX         ",
"                          %==%$$$$$Xo#$$$$$$$$$$$$$#oX          ",
"                         %=--=%$$$$$Xo#$$$$$$$$$$$$#oX          ",
"                        %=-;;-=%%$$$Xo#$$$$$$$$$$$#oX           ",
"                       %=-;;;;-==%%$Xo#$$$$$$$$$$$#oX           ",
"                      %=-;;;;;;--==%XXo#$$$$%%%%%%%%%%%%        ",
"                     %=-;;;;;;;;;--=%Xo#$%%%%===========%%%     ",
"                    %=-;;;;;;;;;;;;-=%X%%====-----------===%    ",
"                   %=-;;;;;;;;;;;;;-=%%==----;;;;;;;;;;;---=%   ",
"                   %=-;;;;;;;;;;;;;;-=%=-;;;;;;;;;;;;;;;;;;-=%  ",
"                  %=-;;;;;;;;;;;;;;-=%=-;;;;;;;;;;;;;;;;;;;;-=% "
};
