/* XPM */
static char *_19c4c78d2fc4c1ad350488d862c8656DUKW5tjZrH1osJk6[] = {
/* columns rows colors chars-per-pixel */
"64 64 39 1 ",
"  c None",
". c #121215",
"X c #151519",
"o c #1A1A1E",
"O c #161D2A",
"+ c #151E2F",
"@ c #181F2A",
"# c #1C2535",
"$ c #1E2735",
"% c #1E2736",
"& c #212126",
"* c #24242C",
"= c #242A2E",
"- c #2A2B39",
"; c #2B3238",
": c #3F4334",
"> c #424635",
", c #40463D",
"< c #4A4E38",
"1 c #515439",
"2 c #56593B",
"3 c #595B3C",
"4 c #242F44",
"5 c #253044",
"6 c #243655",
"7 c #3D3E51",
"8 c #545942",
"9 c #45465A",
"0 c #4B4C67",
"q c #99984E",
"w c #A6A452",
"e c #E6E064",
"r c #FFF76B",
"t c #FFF76C",
"y c #FFF76D",
"u c #FFF86B",
"i c #FFF86C",
"p c #FFF86D",
"a c #FFFA6C",
/* pixels */
"                                                                ",
"                                                                ",
"                                                                ",
"                                                                ",
"                                                                ",
"                                                                ",
"                                                                ",
"                                                                ",
"                                                                ",
"                                                                ",
"                                                                ",
"                                                                ",
"                                                                ",
"                                                                ",
"                                                                ",
"                                                                ",
"                                                                ",
"                                                                ",
"                                                                ",
"                            u                                   ",
"                          pryppp                                ",
"                          pruupw:OO                             ",
"                         uprur>@$$$O                            ",
"                         urrry=O4444O                           ",
"                        prrrr1$$O4664O                          ",
"                        uurup2$4$O4664O                         ",
"                         ppyp3$44$O4664O                        ",
"                          ppq,4464$O4664O                       ",
"                           ue854664$O4664O                      ",
"                            <;466664$O4664O                     ",
"                            O$4666664$O4664O                    ",
"                             O$4666664O$4664O                   ",
"                              O$4666664O46664O                  ",
"                              O$4666+66$O46664O                 ",
"                               O$466++66$O46664O                ",
"                                O$46+$+66$O46664O               ",
"                                 O$4+$++66$O4+4+4O              ",
"                                  O4+4+$+66$OOOOOO              ",
"                                XXO$4++$+66OO$$$$OO             ",
"                               XooXO$4+4+66O$4444$O             ",
"                               Xo&oXO46++6O$46..64$O            ",
"                               Xo&&XOO46+6O$4.oo.4$OX           ",
"                              XXo&&XXOO$66O$4.oo.4$OXX          ",
"                             XoXo&*&XXOO$O$46....64$OXX         ",
"                             XoXo&**&XXO$O$466..664$OoX         ",
"                            Xo&Xo&***&&XOO$46666664$OoX         ",
"                            Xo&*Xo&****&XOOOOOOOOOOOO&oX        ",
"                            Xo&*Xo&*****&XXXXXXXXXXX&&oX        ",
"                           Xo&***Xo&*****&&oooooooo&&&oX        ",
"                          Xo&****Xo&******&&&&&&&&&&*&oX        ",
"                          Xo&****Xo&*****************&oX        ",
"                          Xo&****Xo&*****************&oX        ",
"                           X******Xo&****************&oX        ",
"                           -******Xo&***************&oX         ",
"                          -77-*****Xo&*************&oX          ",
"                         -7997-*****Xo&************&oX          ",
"                        -790097--***Xo&***********&oX           ",
"                       -790000977--*Xo&***********&oX           ",
"                      -790000009977-XXo&****------------        ",
"                     -79000000000997-Xo&*----77777777777---     ",
"                    -7900000000000097-X--777799999999999777-    ",
"                   -79000000000000097--779999000000000009997-   ",
"                   -790000000000000097-7900000000000000000097-  ",
"                  -790000000000000097-790000000000000000000097- "
};
