/* XPM */
static char *_1ce01fa297b432ec6c4f4bfe643c2b6V2MwyCvXnjZolvl5[] = {
/* columns rows colors chars-per-pixel */
"64 64 15 1 ",
"  c None",
". c #121215",
"X c #151519",
"o c #1A1A1E",
"O c #161D2A",
"+ c #151E2F",
"@ c #1C2535",
"# c #212126",
"$ c #24242C",
"% c #2A2B39",
"& c #242F44",
"* c #243655",
"= c #3D3E51",
"- c #45465A",
"; c #4B4C67",
/* pixels */
"                                                                ",
"                                                                ",
"                                                                ",
"                                                                ",
"                                                                ",
"                                                                ",
"                                                                ",
"                                                                ",
"                                                                ",
"                                                                ",
"                                                                ",
"                                                                ",
"                                                                ",
"                                                                ",
"                                                                ",
"                                                                ",
"                          OOOO                                  ",
"                         OO@@@O                                 ",
"                         OO&&&&O                                ",
"                        O@@O&**&O                               ",
"                        O@&@O&**&O                              ",
"                        O@&&@O&**&O                             ",
"                       O@&&*&@O&**&O                            ",
"                       O@&&**&@O&**&O                           ",
"                       O@&****&@O&**&O                          ",
"                       O@&*****&@O&**&O                         ",
"                        O@&*****&O@&**&O                        ",
"                         O@&*****&O&***&O                       ",
"                         O@&***+**@O&***&O                      ",
"                          O@&**++**@O&***&O                     ",
"                           O@&*+@+**@O&***&O                    ",
"                            O@&+@++**@O&+&+&O                   ",
"                             O&+&+@+**@OOOOOO                   ",
"                             O@&++@+**OO@@@@OO                  ",
"                              O@&+&+**O@&&&&@O                  ",
"                               O&*++*O@&*..*&@O                 ",
"                              XXO&*+*O@&.oo.&@O                 ",
"                             XooXO@**O@&.oo.&@O                 ",
"                             Xo#oXO@O@&*....*&@OXX              ",
"                             Xo##XO@O@&**..**&@OXXX             ",
"                            XXo##XXOO@&******&@OXoXX            ",
"                           XoXo#$#XXOOOOOOOOOOOOX#oXX           ",
"                           XoXo#$$#XXXXXXXXXXXXX#$#oX           ",
"                          Xo#Xo#$$$###oooooooo##$$#oX           ",
"                          Xo#$Xo#$$$$##########$$$$#oX          ",
"                          Xo#$Xo#$$$$$$$$$$$$$$$$$$#oX          ",
"                         Xo#$$$Xo#$$$$$$$$$$$$$$$$$#oX          ",
"                        Xo#$$$$Xo#$$$$$$$$$$$$$$$$$#oX          ",
"                        Xo#$$$$Xo#$$$$$$$$$$$$$$$$$#oX          ",
"                        Xo#$$$$Xo#$$$$$$$$$$$$$$$$$#oX          ",
"                         X$$$$$$Xo#$$$$$$$$$$$$$$$$#oX          ",
"                         %$$$$$$Xo#$$$$$$$$$$$$$$$#oX           ",
"                        %==%$$$$$Xo#$$$$$$$$$$$$$#oX            ",
"                       %=--=%$$$$$Xo#$$$$$$$$$$$$#oX            ",
"                      %=-;;-=%%$$$Xo#$$$$$$$$$$$#oX             ",
"                     %=-;;;;-==%%$Xo#$$$$$$$$$$$#oX             ",
"                    %=-;;;;;;--==%XXo#$$$$%%%%%%%%%%%%          ",
"                   %=-;;;;;;;;;--=%Xo#$%%%%===========%%%       ",
"                  %=-;;;;;;;;;;;;-=%X%%====-----------===%      ",
"                 %=-;;;;;;;;;;;;;-=%%==----;;;;;;;;;;;---=%     ",
"                 %=-;;;;;;;;;;;;;;-=%=-;;;;;;;;;;;;;;;;;;-=%    ",
"                %=-;;;;;;;;;;;;;;-=%=-;;;;;;;;;;;;;;;;;;;;-=%   ",
"               %=-;;;;;;;;;;;;;;;-=%=-;;;;;;;;;;;;;;;;;;;;;-=%  ",
"               %=-;;;;;;;;;;;;;;-=%=-;;;;;;;;;;;;;;;;;;;;;;;-=% "
};
