/* XPM */
static char *d282ae2b1dca4a8aa5b9739cc762e58acMnr1DFn8HOkjWFb[] = {
/* columns rows colors chars-per-pixel */
"64 64 37 1 ",
"  c None",
". c #121215",
"X c #151519",
"o c #1A1A1E",
"O c #161D2A",
"+ c #171E2A",
"@ c #151E2F",
"# c #191F2B",
"$ c #1B212B",
"% c #1C2535",
"& c #1D2635",
"* c #212126",
"= c #21272D",
"- c #24242C",
"; c #2A2B39",
": c #2E3639",
"> c #343B3A",
", c #3A413C",
"< c #4E5239",
"1 c #5D5F3C",
"2 c #242F44",
"3 c #243655",
"4 c #3D3E51",
"5 c #585C42",
"6 c #45465A",
"7 c #747543",
"8 c #4B4C67",
"9 c #91904B",
"0 c #99984E",
"q c #B1AE54",
"w c #C8C35B",
"e c #FFF76B",
"r c #FFF76C",
"t c #FFF86B",
"y c #FFF86C",
"u c #FFF96C",
"i c #FFF86D",
/* pixels */
"                                                                ",
"                                                                ",
"                                                                ",
"                                                                ",
"                                                                ",
"                                                                ",
"                                                                ",
"                                                                ",
"                                                                ",
"                                                                ",
"                                                                ",
"                                                                ",
"                                                                ",
"                                                                ",
"                                                                ",
"                                                                ",
"                                                                ",
"                        yey                                     ",
"                       reer #OOO                                ",
"                       eeey0=%%%O                               ",
"                      reeey<$2222O                              ",
"                      eeeeq,%O2332O                             ",
"                     ryreew52%O2332O                            ",
"                     ytyrr7>22%O2332O                           ",
"                      yee9:2232%O2332O                          ",
"                         1%22332%O2332O                         ",
"                         O%233332%O2332O                        ",
"                         O%2333332%O2332O                       ",
"                          O%2333332O%2332O                      ",
"                           O%2333332O23332O                     ",
"                           O%2333@33%O23332O                    ",
"                            O%233@@33%O23332O                   ",
"                             O%23@%@33%O23332O                  ",
"                              O%2@%@@33%O2@2@2O                 ",
"                               O2@2@%@33%OOOOOO                 ",
"                               O%2@@%@33OO%%%%OO                ",
"                                O%2@2@33O%2222%O                ",
"                               XXO23@@3O%23..32%O               ",
"                              XooXO23@3O%2.oo.2%O               ",
"                              Xo*oXO%33O%2.oo.2%OXX             ",
"                              Xo**XOO%O%23....32%OXX            ",
"                             XXo**XXO%O%233..332%OoXX           ",
"                            XoXo*-*XXOO%23333332%O*oXX          ",
"                            XoXo*--*XXOOOOOOOOOOOO**oX          ",
"                           Xo*Xo*---**XXXXXXXXXXXX**oX          ",
"                           Xo*-Xo*----**oooooooo**--*oX         ",
"                           Xo*-Xo*-----**********---*oX         ",
"                          Xo*---Xo*-----------------*oX         ",
"                         Xo*----Xo*-----------------*oX         ",
"                         Xo*----Xo*-----------------*oX         ",
"                         Xo*----Xo*-----------------*oX         ",
"                          X------Xo*----------------*oX         ",
"                          ;------Xo*---------------*oX          ",
"                         ;44;-----Xo*-------------*oX           ",
"                        ;4664;-----Xo*------------*oX           ",
"                       ;468864;;---Xo*-----------*oX            ",
"                      ;468888644;;-Xo*-----------*oX            ",
"                     ;468888886644;XXo*----;;;;;;;;;;;;         ",
"                    ;46888888888664;Xo*-;;;;44444444444;;;      ",
"                   ;4688888888888864;X;;444466666666666444;     ",
"                  ;46888888888888864;;446666888888888886664;    ",
"                  ;468888888888888864;4688888888888888888864;   ",
"                 ;468888888888888864;468888888888888888888864;  ",
"                ;4688888888888888864;4688888888888888888888864; "
};
