/* XPM */
static char *_e168c71073a4f6df3a809b33576174dXqVfSUJnFvDUei2x[] = {
/* columns rows colors chars-per-pixel */
"64 64 58 1 ",
"  c None",
". c #121215",
"X c #151519",
"o c #1A1A1E",
"O c #161D2A",
"+ c #151E2F",
"@ c #1C2535",
"# c #212126",
"$ c #24242C",
"% c #272D31",
"& c #222A37",
"* c #222B38",
"= c #2A2B39",
"- c #242F44",
"; c #243655",
": c #3D3E51",
"> c #4B4F42",
", c #4D5042",
"< c #4E5243",
"1 c #4C5248",
"2 c #555946",
"3 c #45465A",
"4 c #7F7F59",
"5 c #4B4C67",
"6 c #B1AF70",
"7 c #FFF66B",
"8 c #FFF76B",
"9 c #FFF66C",
"0 c #FFF76C",
"q c #FFF76F",
"w c #FFF86B",
"e c #FFF86C",
"r c #FFF96C",
"t c #FFF86D",
"y c #FFF86F",
"u c #FFF773",
"i c #FFF874",
"p c #FFF876",
"a c #FFFA77",
"s c #FFF978",
"d c #FFF979",
"f c #FFF87B",
"g c #FFF87C",
"h c #FFF97E",
"j c #DCD885",
"k c #FFF989",
"l c #FFFA89",
"z c #FFF98A",
"x c #FFF98B",
"c c #FFF98C",
"v c #FFF88D",
"b c #FFFA8C",
"n c #FFF992",
"m c #FFFA92",
"M c #FFF995",
"N c #FFFA94",
"B c #FFFA95",
"V c #FFFA96",
/* pixels */
"                                                                ",
"                                                                ",
"                                                                ",
"                                                                ",
"                                                                ",
"                                                                ",
"                                                                ",
"                                                                ",
"                                                                ",
"                                                                ",
"                                                                ",
"                                                                ",
"                                                                ",
"                                                                ",
"                      ewew7                                     ",
"                      07w0w                                     ",
"                     e70ee0p                                    ",
"                    00770efm                                    ",
"                    7777egmN>OOO                                ",
"                    pfu0pxNj<@@@O                               ",
"                     xxgcNN4O----O                              ",
"                    0fxccN61@O-;;-O                             ",
"                       mN 2*-@O-;;-O                            ",
"                        N %@--@O-;;-O                           ",
"                         <&--;-@O-;;-O                          ",
"                         O@--;;-@O-;;-O                         ",
"                         O@-;;;;-@O-;;-O                        ",
"                         O@-;;;;;-@O-;;-O                       ",
"                          O@-;;;;;-O@-;;-O                      ",
"                           O@-;;;;;-O-;;;-O                     ",
"                           O@-;;;+;;@O-;;;-O                    ",
"                            O@-;;++;;@O-;;;-O                   ",
"                             O@-;+@+;;@O-;;;-O                  ",
"                              O@-+@++;;@O-+-+-O                 ",
"                               O-+-+@+;;@OOOOOO                 ",
"                               O@-++@+;;OO@@@@OO                ",
"                                O@-+-+;;O@----@O                ",
"                               XXO-;++;O@-;..;-@O               ",
"                              XooXO-;+;O@-.oo.-@O               ",
"                              Xo#oXO@;;O@-.oo.-@OXX             ",
"                              Xo##XOO@O@-;....;-@OXX            ",
"                             XXo##XXO@O@-;;..;;-@OoXX           ",
"                            XoXo#$#XXOO@-;;;;;;-@O#oXX          ",
"                            XoXo#$$#XXOOOOOOOOOOOO##oX          ",
"                           Xo#Xo#$$$##XXXXXXXXXXXX##oX          ",
"                           Xo#$Xo#$$$$##oooooooo##$$#oX         ",
"                           Xo#$Xo#$$$$$##########$$$#oX         ",
"                          Xo#$$$Xo#$$$$$$$$$$$$$$$$$#oX         ",
"                         Xo#$$$$Xo#$$$$$$$$$$$$$$$$$#oX         ",
"                         Xo#$$$$Xo#$$$$$$$$$$$$$$$$$#oX         ",
"                         Xo#$$$$Xo#$$$$$$$$$$$$$$$$$#oX         ",
"                          X$$$$$$Xo#$$$$$$$$$$$$$$$$#oX         ",
"                          =$$$$$$Xo#$$$$$$$$$$$$$$$#oX          ",
"                         =::=$$$$$Xo#$$$$$$$$$$$$$#oX           ",
"                        =:33:=$$$$$Xo#$$$$$$$$$$$$#oX           ",
"                       =:3553:==$$$Xo#$$$$$$$$$$$#oX            ",
"                      =:355553::==$Xo#$$$$$$$$$$$#oX            ",
"                     =:355555533::=XXo#$$$$============         ",
"                    =:355555555533:=Xo#$====:::::::::::===      ",
"                   =:35555555555553:=X==::::33333333333:::=     ",
"                  =:355555555555553:==::333355555555555333:=    ",
"                  =:3555555555555553:=:35555555555555555553:=   ",
"                 =:3555555555555553:=:3555555555555555555553:=  ",
"                =:35555555555555553:=:35555555555555555555553:= "
};
