/* XPM */
static char *f04d1a6f1845412b85bb1083d8f91fbcwZnY3ap6r0fCl6gT[] = {
/* columns rows colors chars-per-pixel */
"64 64 34 1 ",
"  c None",
". c #121215",
"X c #151519",
"o c #1A1A1E",
"O c #161D2A",
"+ c #151E2F",
"@ c #191F2B",
"# c #1C2535",
"$ c #1F2836",
"% c #212126",
"& c #24242C",
"* c #22282F",
"= c #242A30",
"- c #242C38",
"; c #262E39",
": c #2A2B39",
"> c #40443C",
", c #474A3F",
"< c #242F44",
"1 c #243655",
"2 c #3D3E51",
"3 c #45465A",
"4 c #7A7A56",
"5 c #4B4C67",
"6 c #8D8D5F",
"7 c #949362",
"8 c #9E9C67",
"9 c #FFF795",
"0 c #FFF894",
"q c #FFF895",
"w c #FFF995",
"e c #FFF896",
"r c #FFF996",
"t c #FFFA96",
/* pixels */
"                                                                ",
"                                                                ",
"                                                                ",
"                                                                ",
"                                                                ",
"                                                                ",
"                                                                ",
"                                                                ",
"                                                                ",
"                                                                ",
"                                                                ",
"                                                                ",
"                                                                ",
"                                                                ",
"                                                                ",
"                                                                ",
"                         ee                                     ",
"                        eee                                     ",
"                       eeeee=OOO                                ",
"                       eeee8*###O                               ",
"                       eeee>@<<<<O                              ",
"                      eeee7-#O<11<O                             ",
"                     9eeee4-<#O<11<O                            ",
"                     9eee9,$<<#O<11<O                           ",
"                        96-<<1<#O<11<O                          ",
"                         >$<<11<#O<11<O                         ",
"                         O#<1111<#O<11<O                        ",
"                         O#<11111<#O<11<O                       ",
"                          O#<11111<O#<11<O                      ",
"                           O#<11111<O<111<O                     ",
"                           O#<111+11#O<111<O                    ",
"                            O#<11++11#O<111<O                   ",
"                             O#<1+#+11#O<111<O                  ",
"                              O#<+#++11#O<+<+<O                 ",
"                               O<+<+#+11#OOOOOO                 ",
"                               O#<++#+11OO####OO                ",
"                                O#<+<+11O#<<<<#O                ",
"                               XXO<1++1O#<1..1<#O               ",
"                              XooXO<1+1O#<.oo.<#O               ",
"                              Xo%oXO#11O#<.oo.<#OXX             ",
"                              Xo%%XOO#O#<1....1<#OXX            ",
"                             XXo%%XXO#O#<11..11<#OoXX           ",
"                            XoXo%&%XXOO#<111111<#O%oXX          ",
"                            XoXo%&&%XXOOOOOOOOOOOO%%oX          ",
"                           Xo%Xo%&&&%%XXXXXXXXXXXX%%oX          ",
"                           Xo%&Xo%&&&&%%oooooooo%%&&%oX         ",
"                           Xo%&Xo%&&&&&%%%%%%%%%%&&&%oX         ",
"                          Xo%&&&Xo%&&&&&&&&&&&&&&&&&%oX         ",
"                         Xo%&&&&Xo%&&&&&&&&&&&&&&&&&%oX         ",
"                         Xo%&&&&Xo%&&&&&&&&&&&&&&&&&%oX         ",
"                         Xo%&&&&Xo%&&&&&&&&&&&&&&&&&%oX         ",
"                          X&&&&&&Xo%&&&&&&&&&&&&&&&&%oX         ",
"                          :&&&&&&Xo%&&&&&&&&&&&&&&&%oX          ",
"                         :22:&&&&&Xo%&&&&&&&&&&&&&%oX           ",
"                        :2332:&&&&&Xo%&&&&&&&&&&&&%oX           ",
"                       :235532::&&&Xo%&&&&&&&&&&&%oX            ",
"                      :235555322::&Xo%&&&&&&&&&&&%oX            ",
"                     :235555553322:XXo%&&&&::::::::::::         ",
"                    :23555555555332:Xo%&::::22222222222:::      ",
"                   :2355555555555532:X::222233333333333222:     ",
"                  :23555555555555532::223333555555555553332:    ",
"                  :235555555555555532:2355555555555555555532:   ",
"                 :235555555555555532:235555555555555555555532:  ",
"                :2355555555555555532:2355555555555555555555532: "
};
