/* XPM */
static char *_f24b751722b4f76be3256790a2a1e1fMP4FoNjiyZtW4hG6[] = {
/* columns rows colors chars-per-pixel */
"64 64 38 1 ",
"  c black",
". c #090909",
"X c #0E0E0E",
"o c gray7",
"O c gray12",
"+ c #01262E",
"@ c #01323D",
"# c gray14",
"$ c #2D2D2D",
"% c gray20",
"& c #3D3C3D",
"* c #033C47",
"= c #024454",
"- c #444444",
"; c #484848",
": c gray33",
"> c gray34",
", c gray35",
"< c #6F6F6F",
"1 c #727272",
"2 c #7B7A7B",
"3 c #7D7A7D",
"4 c #0B7D9F",
"5 c #137694",
"6 c #0386AD",
"7 c #2294B6",
"8 c #2F92B0",
"9 c gray51",
"0 c #868486",
"q c #8A888A",
"w c gray55",
"e c gray66",
"r c #E6E6E6",
"t c gray91",
"y c #ECECEC",
"u c gray94",
"i c #F4F4F4",
"p c #FDFDFD",
/* pixels */
"                                                                ",
"                                                                ",
"                                                                ",
"                                                                ",
"                                                                ",
"                                                                ",
"                                                                ",
"                                                                ",
"                                                                ",
"                                                                ",
"                                                                ",
"                                                                ",
"                                                                ",
"                                                                ",
"                                                                ",
"                                                                ",
"                                                                ",
"                                                                ",
"                  X                                             ",
"     qqq0qqqqqqq0qq0qqq            XOOOOOOOOOOOOOOOOOO          ",
"    qq01111111:1111110qq          XO                  O         ",
"    q01111111:11<11<110q          XO       ee  eee    O         ",
"    q1<11111:::11<11111q          XO      ee7 e77e    O         ",
"    q1111111,:11<<1<1<10          XO     ee7    e7    O         ",
"    q11<<<1<:::1<<<<111q          XO    ee7    e7     O         ",
"    q1<1<11<<111<<<11<10          XO    eeeee e7 e    O         ",
"    q1111111<1111111111q          XO    777ee eee7    O         ",
"    21<111111111<<11111q          XO  O    ee 777o    O         ",
"    q1<111119999<<11111q          XOo      78o o      O         ",
"    q11<<<<<999911111<1q          X$O *  Ooo  oO =  O O         ",
"    q211<<1199991<<1112q          XO+    +@O=, *o  + +%         ",
"    q0211<1199991111122q          Xqqqwqqqqqqqqqqwqqqqq         ",
"    qqq211119999111120qq          Xqqwwwqqqq33qqqqwqqqq         ",
"     qqqq0q99999q0q99qq            Xwwwwwqqwwwwqqwwwqq          ",
"           O9999                           wwww                 ",
"           O9999                          Xwwww                 ",
"           O9999                           9ww9                 ",
"           O9999                           qqq9                 ",
"        O9999999999                     999999qqq9              ",
"ppuuppppppuuuuuuupippipppippupippippupiippupipupppppuuupupppuppp",
"pppipppppuuuuuuuuuipippupipuuupipppuuupipuuuiuippipppupippuiuppp",
"piiupuipppuuuiuuupppppuuupuuuuuippuuuuuiuuuuuippiipiiipppuuupipp",
"pruuuyyyrrrurtuuyrrrruuuuuyuuurrrrruuurrruuurrrrrrrrrrryuuuuuyrp",
"6666666666665666466676666666667666666666666676666666666766666666",
"OOOOO-;;OO#OOOOOOOOOOOOOOOOOOOOOOOOOO#---OOOOOOO#OOOOOOOOOOOOOOO",
"    O--& ..                          O&-& .                     ",
"    O&--                             O--&                       ",
"    O;;-                             O&;&                       ",
"    O;;&                             O;--                       ",
"    O;;;                             O;;;                       ",
"    O;;;                             O;;;                       ",
"    O;;;                             O;;;                       ",
"    O-;;                             #;;&                       ",
"    #&;-                             O-;-                       ",
"    O&;-                             O&;-                       ",
"    O&;&                             O&;-                       ",
"    O-;&                             O-;&                       ",
"    O&;&                             O&;;                       ",
"    O;;-                             O&;;                       ",
"    O;;&                             O;;;                       ",
"    O;;;                             O&;;                       ",
"    O;;&                             O&;;                       ",
"    O;-&                             O-;-                       ",
"    O--&         .                   O&-&                       "
};
