/* XPM */
static char *fab09fac8b1c4019859cdbd223b5a3bf15RgWFzf3U2Dwf0Y[] = {
/* columns rows colors chars-per-pixel */
"20 34 10 1 ",
"  c None",
". c #A3591C",
"X c #CC7410",
"o c #D47A26",
"O c #DE871D",
"+ c #E69137",
"@ c #E69943",
"# c #E89D48",
"$ c #E6A557",
"% c #F0B878",
/* pixels */
"       XXXXX        ",
"     XX@@@@@XX      ",
"   XX@@%%$@@@@XX    ",
"  X@@%%$$@++++@@X   ",
"  X@%%$@++OOOO+@X   ",
" X@%%$@+OOOOOOO+@X  ",
" X@%$@+OOOOOOOO+@X  ",
"XXX%$@+OOOOOO+++XXX ",
"X@%XXX+++++++XXX@@X ",
"X@%%$@XXXXXXX@@@+@X ",
"X@%%$@@@@@@@@++++@X ",
"X@%%$@++++++++OO+@X ",
"X@%%$@++OOOOOOOO+@X ",
"X@%%$@+OOOOOOOOO+@X ",
"X@%%$@+OOOOOOOOO+@X ",
"X@%%$@+OOOOOOOOO+@X ",
"X@%%$@+OOOOOOOOO+@X ",
"X@%%$@+OOOOOOOOO+@X ",
"X@%%$@+OOOOOOOOO+@X ",
"X@%%$@+OOOOOOOOO+@X ",
"X@%%$@+OOOOOOOOO+@X ",
"X@%%$@+OOOOOOOOO+@X ",
"X@%%%$@+OOOOOOOO+@X ",
"X@@%%$@+OOOOOO++@@X ",
" XX@%%$@++++++@@XX  ",
" ooXX#########XXoo  ",
"X@OooXXXXXXXXXooO@X ",
"X@OOOoooooooooOOO@X ",
"X@@OOOOOOOOOOOOO@@X ",
".XX@@@OOOOOOO@@@XX. ",
" ..XXX@@@@@@@XXX..  ",
"   ...XXXXXXX...    ",
"      .......       ",
"                    "
};
