/* XPM */
static char *_f72a0df627441fecfaba636e51f3b14J6chy04IAWqqZSr1[] = {
/* columns rows colors chars-per-pixel */
"24 64 13 1 ",
"  c None",
". c #1E5743",
"X c #9C5419",
"o c #BD6C26",
"O c #CC7410",
"+ c #D47A26",
"@ c #298061",
"# c #DE871D",
"$ c #F29829",
"% c #3EB58C",
"& c #42A680",
"* c #4BB38D",
"= c #5CBD98",
/* pixels */
"                        ",
"                        ",
"                        ",
"                        ",
"                        ",
"                        ",
"                        ",
"                        ",
"                        ",
"                        ",
"                        ",
"          .....         ",
"         .@@&=*.        ",
"        .@*&=%&=.       ",
"       .@%&=%&=%&.      ",
"       .@&=%&=%&@.      ",
"      X+@@@&=*@@@+O     ",
"     X#$++@@@@@++$#X    ",
"     X#$$$+++++$$$#X    ",
"     X##$$$$$$$$$$#X    ",
"    X+##$$$$$$$$$$$#X   ",
"    X++##$$$$$$$$$$#X   ",
"    X++####$$$$$$$$#X   ",
"    X+++#####$$$$$$#X   ",
"   XXX++++####$$$$$XXX  ",
"   X#+XXX+++####XXX$#X  ",
"   X#++ooXXXXXXX#$$$#X  ",
"   X#++oooo+++###$$$#X  ",
"   X#++ooooo++###$$$#X  ",
"   X#++ooooo+++##$$$#X  ",
"   X#++ooXooo++##$$$#X  ",
"   X#++ooXooo++##$$$#X  ",
"   X#++ooXXoo++##$$$#X  ",
"   X#++ooXXoo++##$$$#X  ",
"   X#++ooXXoo++##$$$#X  ",
"   X#++ooXXoo++##$$$#X  ",
"   X#++ooXXoo++##$$$#X  ",
"   X#++ooXXoo++##$$$#X  ",
"   X#++ooXXoo++##$$$#X  ",
"   X#++ooXXoo++##$$$#X  ",
"   X#++ooXXoo++##$$$#X  ",
"   X#++ooXXoo++##$$$#X  ",
"   X#++ooXXoo++##$$$#X  ",
"   X#++ooXXoo++##$$$#X  ",
"   X#++ooXXoo++##$$$#X  ",
"   X#++ooXXoo++##$$$#X  ",
"   X#++ooXXoo++##$$$#X  ",
"   X#++ooXXoo++##$$$#X  ",
"   X#++ooXXoo++##$$$#X  ",
"   X#++ooXXoo++##$$$#X  ",
"   X#++ooXXoo++##$$$#X  ",
"   X#++ooXXoo++##$$$#X  ",
"   X#++ooXXoo++##$$$#X  ",
"   X#++ooXXoo++##$$$#X  ",
"   X#++ooXXoo++##$$$#X  ",
"   X#++ooXXoo++##$$$#X  ",
"   X#++ooXXoo++##$$$#X  ",
"   X#++ooXXoo++##$$$#X  ",
"   X#++ooXXoo++##$$$#X  ",
"   X+++oooXooo+##$$$#X  ",
"    XXoooooooo++#$$XX   ",
"      XXXoooooo+XXX     ",
"         XXXXXXX        ",
"                        "
};
