/* XPM */
static char *_e6cd0f91e2241afa470043a4eb99a02DLuiaX2Wi43KfHz2[] = {
/* columns rows colors chars-per-pixel */
"96 96 7 1 ",
"  c #201B17",
". c #27211C",
"X c #362D26",
"o c #562003",
"O c #4B3F35",
"+ c #284301",
"@ c #802F04",
/* pixels */
"........................XXXXXXXXXXXXXXXXXXXXXXXXXXXXXXXXXXXXXXXXXXXXXXXX........................",
"........................XXXXXXXXXXXXXXXXXXXXXXXXXXXXXXXXXXXXXXXXXXXXXXXX........................",
"........................XXXXXXXXXXXXXXXXXXXXXXXXXXXXXXXXXXXXXXXXXXXXXXXX........................",
"........................XXXXXXXXXXXXXXXXXXXXXXXXXXXXXXXXXXXXXXXXXXXXXXXX........................",
"........................XXXXXXXXXXXXXXXXXXXXXXXXXXXXXXXXXXXXXXXXXXXXXXXX........................",
"........................XXXXXXXXXXXXXXXXXXXXXXXXXXXXXXXXXXXXXXXXXXXXXXXX........................",
"........................XXXXXXXXXXXXXXXXXXXXXXXXXXXXXXXXXXXXXXXXXXXXXXXX........................",
"........................XXXXXXXXXXXXXXXXXXXXXXXXXXXXXXXXXXXXXXXXXXXXXXXX........................",
"........................................XXXXXXXXXXXXXXXX........................................",
"........................................XXXXXXXXXXXXXXXX........................................",
"........................................XXXXXXXXXXXXXXXX........................................",
"........................................XXXXXXXXXXXXXXXX........................................",
"........................................XXXXXXXXXXXXXXXX........................................",
"........................................XXXXXXXXXXXXXXXX........................................",
"........................................XXXXXXXXXXXXXXXX........................................",
"........................................XXXXXXXXXXXXXXXX........................................",
"OOOOOOOO                        ........oooooooo@@@@@@@@........                        OOOOOOOO",
"OOOOOOOO                        ........oooooooo@@@@@@@@........                        OOOOOOOO",
"OOOOOOOO                        ........oooooooo@@@@@@@@........                        OOOOOOOO",
"OOOOOOOO                        ........oooooooo@@@@@@@@........                        OOOOOOOO",
"OOOOOOOO                        ........oooooooo@@@@@@@@........                        OOOOOOOO",
"OOOOOOOO                        ........oooooooo@@@@@@@@........                        OOOOOOOO",
"OOOOOOOO                        ........oooooooo@@@@@@@@........                        OOOOOOOO",
"OOOOOOOO                        ........oooooooo@@@@@@@@........                        OOOOOOOO",
"OOOOOOOO                                ++++++++++++++++                                OOOOOOOO",
"OOOOOOOO                                ++++++++++++++++                                OOOOOOOO",
"OOOOOOOO                                ++++++++++++++++                                OOOOOOOO",
"OOOOOOOO                                ++++++++++++++++                                OOOOOOOO",
"OOOOOOOO                                ++++++++++++++++                                OOOOOOOO",
"OOOOOOOO                                ++++++++++++++++                                OOOOOOOO",
"OOOOOOOO                                ++++++++++++++++                                OOOOOOOO",
"OOOOOOOO                                ++++++++++++++++                                OOOOOOOO",
"........................................XXXXXXXXXXXXXXXX........................................",
"........................................XXXXXXXXXXXXXXXX........................................",
"........................................XXXXXXXXXXXXXXXX........................................",
"........................................XXXXXXXXXXXXXXXX........................................",
"........................................XXXXXXXXXXXXXXXX........................................",
"........................................XXXXXXXXXXXXXXXX........................................",
"........................................XXXXXXXXXXXXXXXX........................................",
"........................................XXXXXXXXXXXXXXXX........................................",
"OOOOOOOOooooooooooooooooooooooooooooooooooooooooooooooooooooooooooooooooooooooooooooooooOOOOOOOO",
"OOOOOOOOooooooooooooooooooooooooooooooooooooooooooooooooooooooooooooooooooooooooooooooooOOOOOOOO",
"OOOOOOOOooooooooooooooooooooooooooooooooooooooooooooooooooooooooooooooooooooooooooooooooOOOOOOOO",
"OOOOOOOOooooooooooooooooooooooooooooooooooooooooooooooooooooooooooooooooooooooooooooooooOOOOOOOO",
"OOOOOOOOooooooooooooooooooooooooooooooooooooooooooooooooooooooooooooooooooooooooooooooooOOOOOOOO",
"OOOOOOOOooooooooooooooooooooooooooooooooooooooooooooooooooooooooooooooooooooooooooooooooOOOOOOOO",
"OOOOOOOOooooooooooooooooooooooooooooooooooooooooooooooooooooooooooooooooooooooooooooooooOOOOOOOO",
"OOOOOOOOooooooooooooooooooooooooooooooooooooooooooooooooooooooooooooooooooooooooooooooooOOOOOOOO",
"OOOOOOOOooooooooooooooooooooooooooooooooXXXXXXXXXXXXXXXXooooooooooooooooooooooooooooooooOOOOOOOO",
"OOOOOOOOooooooooooooooooooooooooooooooooXXXXXXXXXXXXXXXXooooooooooooooooooooooooooooooooOOOOOOOO",
"OOOOOOOOooooooooooooooooooooooooooooooooXXXXXXXXXXXXXXXXooooooooooooooooooooooooooooooooOOOOOOOO",
"OOOOOOOOooooooooooooooooooooooooooooooooXXXXXXXXXXXXXXXXooooooooooooooooooooooooooooooooOOOOOOOO",
"OOOOOOOOooooooooooooooooooooooooooooooooXXXXXXXXXXXXXXXXooooooooooooooooooooooooooooooooOOOOOOOO",
"OOOOOOOOooooooooooooooooooooooooooooooooXXXXXXXXXXXXXXXXooooooooooooooooooooooooooooooooOOOOOOOO",
"OOOOOOOOooooooooooooooooooooooooooooooooXXXXXXXXXXXXXXXXooooooooooooooooooooooooooooooooOOOOOOOO",
"OOOOOOOOooooooooooooooooooooooooooooooooXXXXXXXXXXXXXXXXooooooooooooooooooooooooooooooooOOOOOOOO",
"OOOOOOOOooooooooooooooooooooooooXXXXXXXXooooooooooooooooXXXXXXXXooooooooooooooooooooooooOOOOOOOO",
"OOOOOOOOooooooooooooooooooooooooXXXXXXXXooooooooooooooooXXXXXXXXooooooooooooooooooooooooOOOOOOOO",
"OOOOOOOOooooooooooooooooooooooooXXXXXXXXooooooooooooooooXXXXXXXXooooooooooooooooooooooooOOOOOOOO",
"OOOOOOOOooooooooooooooooooooooooXXXXXXXXooooooooooooooooXXXXXXXXooooooooooooooooooooooooOOOOOOOO",
"OOOOOOOOooooooooooooooooooooooooXXXXXXXXooooooooooooooooXXXXXXXXooooooooooooooooooooooooOOOOOOOO",
"OOOOOOOOooooooooooooooooooooooooXXXXXXXXooooooooooooooooXXXXXXXXooooooooooooooooooooooooOOOOOOOO",
"OOOOOOOOooooooooooooooooooooooooXXXXXXXXooooooooooooooooXXXXXXXXooooooooooooooooooooooooOOOOOOOO",
"OOOOOOOOooooooooooooooooooooooooXXXXXXXXooooooooooooooooXXXXXXXXooooooooooooooooooooooooOOOOOOOO",
"OOOOOOOOooooooooooooooooXXXXXXXXooooooooooooooooooooooooooooooooXXXXXXXXooooooooooooooooOOOOOOOO",
"OOOOOOOOooooooooooooooooXXXXXXXXooooooooooooooooooooooooooooooooXXXXXXXXooooooooooooooooOOOOOOOO",
"OOOOOOOOooooooooooooooooXXXXXXXXooooooooooooooooooooooooooooooooXXXXXXXXooooooooooooooooOOOOOOOO",
"OOOOOOOOooooooooooooooooXXXXXXXXooooooooooooooooooooooooooooooooXXXXXXXXooooooooooooooooOOOOOOOO",
"OOOOOOOOooooooooooooooooXXXXXXXXooooooooooooooooooooooooooooooooXXXXXXXXooooooooooooooooOOOOOOOO",
"OOOOOOOOooooooooooooooooXXXXXXXXooooooooooooooooooooooooooooooooXXXXXXXXooooooooooooooooOOOOOOOO",
"OOOOOOOOooooooooooooooooXXXXXXXXooooooooooooooooooooooooooooooooXXXXXXXXooooooooooooooooOOOOOOOO",
"OOOOOOOOooooooooooooooooXXXXXXXXooooooooooooooooooooooooooooooooXXXXXXXXooooooooooooooooOOOOOOOO",
"OOOOOOOOooooooooXXXXXXXXooooooooooooooooooooooooooooooooooooooooooooooooXXXXXXXXooooooooOOOOOOOO",
"OOOOOOOOooooooooXXXXXXXXooooooooooooooooooooooooooooooooooooooooooooooooXXXXXXXXooooooooOOOOOOOO",
"OOOOOOOOooooooooXXXXXXXXooooooooooooooooooooooooooooooooooooooooooooooooXXXXXXXXooooooooOOOOOOOO",
"OOOOOOOOooooooooXXXXXXXXooooooooooooooooooooooooooooooooooooooooooooooooXXXXXXXXooooooooOOOOOOOO",
"OOOOOOOOooooooooXXXXXXXXooooooooooooooooooooooooooooooooooooooooooooooooXXXXXXXXooooooooOOOOOOOO",
"OOOOOOOOooooooooXXXXXXXXooooooooooooooooooooooooooooooooooooooooooooooooXXXXXXXXooooooooOOOOOOOO",
"OOOOOOOOooooooooXXXXXXXXooooooooooooooooooooooooooooooooooooooooooooooooXXXXXXXXooooooooOOOOOOOO",
"OOOOOOOOooooooooXXXXXXXXooooooooooooooooooooooooooooooooooooooooooooooooXXXXXXXXooooooooOOOOOOOO",
"OOOOOOOOXXXXXXXXooooooooooooooooooooooooooooooooooooooooooooooooooooooooooooooooOOOOOOOOOOOOOOOO",
"OOOOOOOOXXXXXXXXooooooooooooooooooooooooooooooooooooooooooooooooooooooooooooooooOOOOOOOOOOOOOOOO",
"OOOOOOOOXXXXXXXXooooooooooooooooooooooooooooooooooooooooooooooooooooooooooooooooOOOOOOOOOOOOOOOO",
"OOOOOOOOXXXXXXXXooooooooooooooooooooooooooooooooooooooooooooooooooooooooooooooooOOOOOOOOOOOOOOOO",
"OOOOOOOOXXXXXXXXooooooooooooooooooooooooooooooooooooooooooooooooooooooooooooooooOOOOOOOOOOOOOOOO",
"OOOOOOOOXXXXXXXXooooooooooooooooooooooooooooooooooooooooooooooooooooooooooooooooOOOOOOOOOOOOOOOO",
"OOOOOOOOXXXXXXXXooooooooooooooooooooooooooooooooooooooooooooooooooooooooooooooooOOOOOOOOOOOOOOOO",
"OOOOOOOOXXXXXXXXooooooooooooooooooooooooooooooooooooooooooooooooooooooooooooooooOOOOOOOOOOOOOOOO",
"................OOOOOOOOOOOOOOOOOOOOOOOOOOOOOOOOOOOOOOOOOOOOOOOOOOOOOOOOOOOOOOOO................",
"................OOOOOOOOOOOOOOOOOOOOOOOOOOOOOOOOOOOOOOOOOOOOOOOOOOOOOOOOOOOOOOOO................",
"................OOOOOOOOOOOOOOOOOOOOOOOOOOOOOOOOOOOOOOOOOOOOOOOOOOOOOOOOOOOOOOOO................",
"................OOOOOOOOOOOOOOOOOOOOOOOOOOOOOOOOOOOOOOOOOOOOOOOOOOOOOOOOOOOOOOOO................",
"................OOOOOOOOOOOOOOOOOOOOOOOOOOOOOOOOOOOOOOOOOOOOOOOOOOOOOOOOOOOOOOOO................",
"................OOOOOOOOOOOOOOOOOOOOOOOOOOOOOOOOOOOOOOOOOOOOOOOOOOOOOOOOOOOOOOOO................",
"................OOOOOOOOOOOOOOOOOOOOOOOOOOOOOOOOOOOOOOOOOOOOOOOOOOOOOOOOOOOOOOOO................",
"................OOOOOOOOOOOOOOOOOOOOOOOOOOOOOOOOOOOOOOOOOOOOOOOOOOOOOOOOOOOOOOOO................"
};
