/* XPM */
static char *d623b923aa584470b6e0787384b059273z3ZM5DzYak2v9xf[] = {
/* columns rows colors chars-per-pixel */
"96 96 6 1 ",
"  c #27211C",
". c #362D26",
"X c #562003",
"o c #4B3F35",
"O c #8D390B",
"+ c #00C517",
/* pixels */
"        oooooooooooooooooooooooooooooooooooooooooooooooooooooooooooooooooooooooooooooooo        ",
"        oooooooooooooooooooooooooooooooooooooooooooooooooooooooooooooooooooooooooooooooo        ",
"        oooooooooooooooooooooooooooooooooooooooooooooooooooooooooooooooooooooooooooooooo        ",
"        oooooooooooooooooooooooooooooooooooooooooooooooooooooooooooooooooooooooooooooooo        ",
"        oooooooooooooooooooooooooooooooooooooooooooooooooooooooooooooooooooooooooooooooo        ",
"        oooooooooooooooooooooooooooooooooooooooooooooooooooooooooooooooooooooooooooooooo        ",
"        oooooooooooooooooooooooooooooooooooooooooooooooooooooooooooooooooooooooooooooooo        ",
"        oooooooooooooooooooooooooooooooooooooooooooooooooooooooooooooooooooooooooooooooo        ",
"                        ................................................                        ",
"                        ................................................                        ",
"                        ................................................                        ",
"                        ................................................                        ",
"                        ................................................                        ",
"                        ................................................                        ",
"                        ................................................                        ",
"                        ................................................                        ",
"                oooooooooooooooooooooooooooooooooooooooooooooooooooooooooooooooo                ",
"                oooooooooooooooooooooooooooooooooooooooooooooooooooooooooooooooo                ",
"                oooooooooooooooooooooooooooooooooooooooooooooooooooooooooooooooo                ",
"                oooooooooooooooooooooooooooooooooooooooooooooooooooooooooooooooo                ",
"                oooooooooooooooooooooooooooooooooooooooooooooooooooooooooooooooo                ",
"                oooooooooooooooooooooooooooooooooooooooooooooooooooooooooooooooo                ",
"                oooooooooooooooooooooooooooooooooooooooooooooooooooooooooooooooo                ",
"                oooooooooooooooooooooooooooooooooooooooooooooooooooooooooooooooo                ",
"                        ................................................                        ",
"                        ................................................                        ",
"                        ................................................                        ",
"                        ................................................                        ",
"                        ................................................                        ",
"                        ................................................                        ",
"                        ................................................                        ",
"                        ................................................                        ",
"                                        ................                                        ",
"                                        ................                                        ",
"                                        ................                                        ",
"                                        ................                                        ",
"                                        ................                                        ",
"                                        ................                                        ",
"                                        ................                                        ",
"                                        ................                                        ",
"ooooooooXXXXXXXXXXXXXXXXXXXXXXXX        XXXXXXXXOOOOOOOO        XXXXXXXXXXXXXXXXXXXXXXXXoooooooo",
"ooooooooXXXXXXXXXXXXXXXXXXXXXXXX        XXXXXXXXOOOOOOOO        XXXXXXXXXXXXXXXXXXXXXXXXoooooooo",
"ooooooooXXXXXXXXXXXXXXXXXXXXXXXX        XXXXXXXXOOOOOOOO        XXXXXXXXXXXXXXXXXXXXXXXXoooooooo",
"ooooooooXXXXXXXXXXXXXXXXXXXXXXXX        XXXXXXXXOOOOOOOO        XXXXXXXXXXXXXXXXXXXXXXXXoooooooo",
"ooooooooXXXXXXXXXXXXXXXXXXXXXXXX        XXXXXXXXOOOOOOOO        XXXXXXXXXXXXXXXXXXXXXXXXoooooooo",
"ooooooooXXXXXXXXXXXXXXXXXXXXXXXX        XXXXXXXXOOOOOOOO        XXXXXXXXXXXXXXXXXXXXXXXXoooooooo",
"ooooooooXXXXXXXXXXXXXXXXXXXXXXXX        XXXXXXXXOOOOOOOO        XXXXXXXXXXXXXXXXXXXXXXXXoooooooo",
"ooooooooXXXXXXXXXXXXXXXXXXXXXXXX        XXXXXXXXOOOOOOOO        XXXXXXXXXXXXXXXXXXXXXXXXoooooooo",
"ooooooooXXXXXXXXXXXXXXXXXXXXXXXXXXXXXXXX++++++++++++++++XXXXXXXXXXXXXXXXXXXXXXXXXXXXXXXXoooooooo",
"ooooooooXXXXXXXXXXXXXXXXXXXXXXXXXXXXXXXX++++++++++++++++XXXXXXXXXXXXXXXXXXXXXXXXXXXXXXXXoooooooo",
"ooooooooXXXXXXXXXXXXXXXXXXXXXXXXXXXXXXXX++++++++++++++++XXXXXXXXXXXXXXXXXXXXXXXXXXXXXXXXoooooooo",
"ooooooooXXXXXXXXXXXXXXXXXXXXXXXXXXXXXXXX++++++++++++++++XXXXXXXXXXXXXXXXXXXXXXXXXXXXXXXXoooooooo",
"ooooooooXXXXXXXXXXXXXXXXXXXXXXXXXXXXXXXX++++++++++++++++XXXXXXXXXXXXXXXXXXXXXXXXXXXXXXXXoooooooo",
"ooooooooXXXXXXXXXXXXXXXXXXXXXXXXXXXXXXXX++++++++++++++++XXXXXXXXXXXXXXXXXXXXXXXXXXXXXXXXoooooooo",
"ooooooooXXXXXXXXXXXXXXXXXXXXXXXXXXXXXXXX++++++++++++++++XXXXXXXXXXXXXXXXXXXXXXXXXXXXXXXXoooooooo",
"ooooooooXXXXXXXXXXXXXXXXXXXXXXXXXXXXXXXX++++++++++++++++XXXXXXXXXXXXXXXXXXXXXXXXXXXXXXXXoooooooo",
"ooooooooXXXXXXXXXXXXXXXXXXXXXXXX........XXXXXXXXXXXXXXXX........XXXXXXXXXXXXXXXXXXXXXXXXoooooooo",
"ooooooooXXXXXXXXXXXXXXXXXXXXXXXX........XXXXXXXXXXXXXXXX........XXXXXXXXXXXXXXXXXXXXXXXXoooooooo",
"ooooooooXXXXXXXXXXXXXXXXXXXXXXXX........XXXXXXXXXXXXXXXX........XXXXXXXXXXXXXXXXXXXXXXXXoooooooo",
"ooooooooXXXXXXXXXXXXXXXXXXXXXXXX........XXXXXXXXXXXXXXXX........XXXXXXXXXXXXXXXXXXXXXXXXoooooooo",
"ooooooooXXXXXXXXXXXXXXXXXXXXXXXX........XXXXXXXXXXXXXXXX........XXXXXXXXXXXXXXXXXXXXXXXXoooooooo",
"ooooooooXXXXXXXXXXXXXXXXXXXXXXXX........XXXXXXXXXXXXXXXX........XXXXXXXXXXXXXXXXXXXXXXXXoooooooo",
"ooooooooXXXXXXXXXXXXXXXXXXXXXXXX........XXXXXXXXXXXXXXXX........XXXXXXXXXXXXXXXXXXXXXXXXoooooooo",
"ooooooooXXXXXXXXXXXXXXXXXXXXXXXX........XXXXXXXXXXXXXXXX........XXXXXXXXXXXXXXXXXXXXXXXXoooooooo",
"ooooooooXXXXXXXXXXXXXXXX........XXXXXXXXXXXXXXXXXXXXXXXXXXXXXXXX........XXXXXXXXXXXXXXXXoooooooo",
"ooooooooXXXXXXXXXXXXXXXX........XXXXXXXXXXXXXXXXXXXXXXXXXXXXXXXX........XXXXXXXXXXXXXXXXoooooooo",
"ooooooooXXXXXXXXXXXXXXXX........XXXXXXXXXXXXXXXXXXXXXXXXXXXXXXXX........XXXXXXXXXXXXXXXXoooooooo",
"ooooooooXXXXXXXXXXXXXXXX........XXXXXXXXXXXXXXXXXXXXXXXXXXXXXXXX........XXXXXXXXXXXXXXXXoooooooo",
"ooooooooXXXXXXXXXXXXXXXX........XXXXXXXXXXXXXXXXXXXXXXXXXXXXXXXX........XXXXXXXXXXXXXXXXoooooooo",
"ooooooooXXXXXXXXXXXXXXXX........XXXXXXXXXXXXXXXXXXXXXXXXXXXXXXXX........XXXXXXXXXXXXXXXXoooooooo",
"ooooooooXXXXXXXXXXXXXXXX........XXXXXXXXXXXXXXXXXXXXXXXXXXXXXXXX........XXXXXXXXXXXXXXXXoooooooo",
"ooooooooXXXXXXXXXXXXXXXX........XXXXXXXXXXXXXXXXXXXXXXXXXXXXXXXX........XXXXXXXXXXXXXXXXoooooooo",
"ooooooooXXXXXXXX........XXXXXXXXXXXXXXXXXXXXXXXXXXXXXXXXXXXXXXXXXXXXXXXX........XXXXXXXXoooooooo",
"ooooooooXXXXXXXX........XXXXXXXXXXXXXXXXXXXXXXXXXXXXXXXXXXXXXXXXXXXXXXXX........XXXXXXXXoooooooo",
"ooooooooXXXXXXXX........XXXXXXXXXXXXXXXXXXXXXXXXXXXXXXXXXXXXXXXXXXXXXXXX........XXXXXXXXoooooooo",
"ooooooooXXXXXXXX........XXXXXXXXXXXXXXXXXXXXXXXXXXXXXXXXXXXXXXXXXXXXXXXX........XXXXXXXXoooooooo",
"ooooooooXXXXXXXX........XXXXXXXXXXXXXXXXXXXXXXXXXXXXXXXXXXXXXXXXXXXXXXXX........XXXXXXXXoooooooo",
"ooooooooXXXXXXXX........XXXXXXXXXXXXXXXXXXXXXXXXXXXXXXXXXXXXXXXXXXXXXXXX........XXXXXXXXoooooooo",
"ooooooooXXXXXXXX........XXXXXXXXXXXXXXXXXXXXXXXXXXXXXXXXXXXXXXXXXXXXXXXX........XXXXXXXXoooooooo",
"ooooooooXXXXXXXX........XXXXXXXXXXXXXXXXXXXXXXXXXXXXXXXXXXXXXXXXXXXXXXXX........XXXXXXXXoooooooo",
"oooooooo........XXXXXXXXXXXXXXXXXXXXXXXXXXXXXXXXXXXXXXXXXXXXXXXXXXXXXXXXXXXXXXXXoooooooooooooooo",
"oooooooo........XXXXXXXXXXXXXXXXXXXXXXXXXXXXXXXXXXXXXXXXXXXXXXXXXXXXXXXXXXXXXXXXoooooooooooooooo",
"oooooooo........XXXXXXXXXXXXXXXXXXXXXXXXXXXXXXXXXXXXXXXXXXXXXXXXXXXXXXXXXXXXXXXXoooooooooooooooo",
"oooooooo........XXXXXXXXXXXXXXXXXXXXXXXXXXXXXXXXXXXXXXXXXXXXXXXXXXXXXXXXXXXXXXXXoooooooooooooooo",
"oooooooo........XXXXXXXXXXXXXXXXXXXXXXXXXXXXXXXXXXXXXXXXXXXXXXXXXXXXXXXXXXXXXXXXoooooooooooooooo",
"oooooooo........XXXXXXXXXXXXXXXXXXXXXXXXXXXXXXXXXXXXXXXXXXXXXXXXXXXXXXXXXXXXXXXXoooooooooooooooo",
"oooooooo........XXXXXXXXXXXXXXXXXXXXXXXXXXXXXXXXXXXXXXXXXXXXXXXXXXXXXXXXXXXXXXXXoooooooooooooooo",
"oooooooo........XXXXXXXXXXXXXXXXXXXXXXXXXXXXXXXXXXXXXXXXXXXXXXXXXXXXXXXXXXXXXXXXoooooooooooooooo",
"                oooooooooooooooooooooooooooooooooooooooooooooooooooooooooooooooo                ",
"                oooooooooooooooooooooooooooooooooooooooooooooooooooooooooooooooo                ",
"                oooooooooooooooooooooooooooooooooooooooooooooooooooooooooooooooo                ",
"                oooooooooooooooooooooooooooooooooooooooooooooooooooooooooooooooo                ",
"                oooooooooooooooooooooooooooooooooooooooooooooooooooooooooooooooo                ",
"                oooooooooooooooooooooooooooooooooooooooooooooooooooooooooooooooo                ",
"                oooooooooooooooooooooooooooooooooooooooooooooooooooooooooooooooo                ",
"                oooooooooooooooooooooooooooooooooooooooooooooooooooooooooooooooo                "
};
