/* XPM */
static char *ca5669f6d2e24ba6b03977b4448b846aZtKK4IqWPq0kXgRo[] = {
/* columns rows colors chars-per-pixel */
"64 64 5 1 ",
"  c gray25",
". c #4C4B4B",
"X c #727272",
"o c #7C7B7B",
"O c gray52",
/* pixels */
"XXXXooooooooooooooooooooooooooooooooooooooooooooooooooooooooXXXX",
"XXXXooooooooooooooooooooooooooooooooooooooooooooooooooooooooXXXX",
"XXXXooooooooooooooooooooooooooooooooooooooooooooooooooooooooXXXX",
"XXXXooOOOOOOOOOOOOOOOOOOOOOOOOOOOOOOOOOOOOOOOOOOOOOOOOOOOoooXXXX",
"XXXXoo................................................ OOoooXXXX",
"XXXXoo                                               . OOoooXXXX",
"XXXXoo OOOOOOOOOOOOOOOOOOOOOOOOOOOOOOOOOOOOOOOOOOOOOO. OOoooXXXX",
"XXXXoo OOOOOOOOOOOOOOOOOOOOOOOOOOOOOOOOOOOOOOOOOOOOOO. OOoooXXXX",
"XXXXoo OOOOOOOOOOOOOOOOOOOOOOOOOOOOOOOOOOOOOOOOOOOOOO. OOoooXXXX",
"...... OOOOOOOOOOOOOOOOOOOOOOOOOOOOOOOOOOOOOOOOOOOOOO. OOoooXXXX",
"       OOOOOOOOOOOOOOOOOOOOOOOOOOOOOOOOOOOOOOOOOOOOOO. OOoooXXXX",
"       OOOOOOOOOOOOOOOOOOOOOOOOOOOOOOOOOOOOOOOOOOOOOO. OOoooXXXX",
"       OOOOOOOOOOOOOOOOOOOOOOOOOOOOOOOOOOOOOOOOOOOOOO. OOoooXXXX",
"...... OOOOOOOOOOOOOOOOOOOOOOOOOOOOOOOOOOOOOOOOOOOOOO. OOoooXXXX",
"XXXXoo OOOOOOOOOOOOOOOOOOOOOOOOOOOOOOOOOOOOOOOOOOOOOO. OOoooXXXX",
"XXXXoo OOOOOOOOOOOOOOOOOOOOOOOOOOOOOOOOOOOOOOOOOOOOOO. OOoooXXXX",
"XXXXoo OOOOOOOOOOOOOOOOOOOOOO. OOOOOOOOOOOOOOOOOOOOOO. OOoooXXXX",
"XXXXoo OOOOOOOOOOOOOOOOOOOOOO. OOOOOOOOOOOOOOOOOOOOOO. OOoooXXXX",
"XXXXoo OOOOOOOOOOOOOOOOOOOOOO. OOOOOOOOOOOOOOOOOOOOOO. OOoooXXXX",
"XXXXoo OOOOOOOOOOOOOOOOOOOOOO. OOOOOOOOOOOOOOOOOOOOOO. OOoooXXXX",
"XXXXoo OOOOOOOOOOOOOOOOOOOOOO. OOOOOOOOOOOOOOOOOOOOOO. OOoooXXXX",
"XXXXoo OOOOOOOOOOOOOO  OOOOOO. OOOOOOOOO. OOOOOOOOOOO. OOoooXXXX",
"XXXXoo OOOOOOOOOOOOOO.  OOOOO. OOOOOOOO.  OOOOOOOOOOO. OOoooXXXX",
"XXXXoo OOOOOOOOOOOOOOO.  OOOO. OOOOOOO.  OOOOOOOOOOOO. OOoooXXXX",
"XXXXoo OOOOOOOOOOOOOOOO.  OOO.    OOO.  OOOOOOOOOOOOO. OOoooXXXX",
"XXXXoo OOOOOOOOOOOOOOOOO.           .  OOOOOOOOOOOOOO. OOoooXXXX",
"XXXXoo OOOOOOOOOOOOOOOOOO.   OO OO    OOOOOOOOOOOOOOO. OOoooXXXX",
"XXXXoo OOOOOOOOOOOOOOOOOO   OOO OOO   OOOOOOOOOOOOOOO. OOoooXXXX",
"XXXXoo OOOOOOOOOOOOOOOOOO  OOO  .OOO  OOOOOOOOOOOOOOO. OOoooXXXX",
"XXXXoo OOOOOOOOOOOOOOOOO  OOO    .OOO .........OOOOOO. OOoooXXXX",
"XXXXoo OOOOOOOOOOOOOOOOO  OO  OOO .OO          OOOOOO. OOoooXXXX",
"XXXXoo OOOOOOOOOOOOOOOOO      OOO      OOOOOOOOOOOOOO. OOoooXXXX",
"XXXXoo OOOOOOOOO          OO. OOO  OO  OOOOOOOOOOOOOO. OOoooXXXX",
"XXXXoo OOOOOOOOO......... OOO.    OOO  OOOOOOOOOOOOOO. OOoooXXXX",
"XXXXoo OOOOOOOOOOOOOOOOOO  OOO.  OOO  OOOOOOOOOOOOOOO. OOoooXXXX",
"XXXXoo OOOOOOOOOOOOOOOOOO   OOO OOO  .OOOOOOOOOOOOOOO. OOoooXXXX",
"XXXXoo OOOOOOOOOOOOOOOOO     OO OO    .OOOOOOOOOOOOOO. OOoooXXXX",
"XXXXoo OOOOOOOOOOOOOOOO  .             .OOOOOOOOOOOOO. OOoooXXXX",
"XXXXoo OOOOOOOOOOOOOOO  .OOOO    .OOOO  .OOOOOOOOOOOO. OOoooXXXX",
"XXXXoo OOOOOOOOOOOOOO  .OOOOOOOO .OOOOO  .OOOOOOOOOOO. OOoooXXXX",
"XXXXoo OOOOOOOOOOOOOO .OOOOOOOOO .OOOOOO  OOOOOOOOOOO. OOoooXXXX",
"XXXXoo OOOOOOOOOOOOOOOOOOOOOOOOO .OOOOOOOOOOOOOOOOOOO. OOoooXXXX",
"XXXXoo OOOOOOOOOOOOOOOOOOOOOOOOO .OOOOOOOOOOOOOOOOOOO. OOoooXXXX",
"XXXXoo OOOOOOOOOOOOOOOOOOOOOOOOO .OOOOOOOOOOOOOOOOOOO. OOoooXXXX",
"XXXXoo OOOOOOOOOOOOOOOOOOOOOOOOO .OOOOOOOOOOOOOOOOOOO. OOoooXXXX",
"XXXXoo OOOOOOOOOOOOOOOOOOOOOOOOO .OOOOOOOOOOOOOOOOOOO. OOoooXXXX",
"XXXXoo OOOOOOOOOOOOOOOOOOOOOOOOOOOOOOOOOOOOOOOOOOOOOO. OOoooXXXX",
"XXXXoo OOOOOOOOOOOOOOOOOOOOOOOOOOOOOOOOOOOOOOOOOOOOOO. OOoooXXXX",
"XXXXoo OOOOOOOOOOOOOOOOOOOOOOOOOOOOOOOOOOOOOOOOOOOOOO. OOoooXXXX",
"XXXXoo OOOOOOOOOOOOOOOOOOOOOOOOOOOOOOOOOOOOOOOOOOOOOO. OOoooXXXX",
"XXXXoo OOOOOOOOOOOOOOOOOOOOOOOOOOOOOOOOOOOOOOOOOOOOOO. OOoooXXXX",
"XXXXoo OOOOOOOOOOOOOOOOOOOOOOOOOOOOOOOOOOOOOOOOOOOOOO. OOoooXXXX",
"...... OOOOOOOOOOOOOOOOOOOOOOOOOOOOOOOOOOOOOOOOOOOOOO. OOoooXXXX",
"       OOOOOOOOOOOOOOOOOOOOOOOOOOOOOOOOOOOOOOOOOOOOOO. OOoooXXXX",
"       OOOOOOOOOOOOOOOOOOOOOOOOOOOOOOOOOOOOOOOOOOOOOO. OOoooXXXX",
"       OOOOOOOOOOOOOOOOOOOOOOOOOOOOOOOOOOOOOOOOOOOOOO. OOoooXXXX",
"...... OOOOOOOOOOOOOOOOOOOOOOOOOOOOOOOOOOOOOOOOOOOOOO. OOoooXXXX",
"XXXXoo OOOOOOOOOOOOOOOOOOOOOOOOOOOOOOOOOOOOOOOOOOOOOO. OOoooXXXX",
"XXXXoo OOOOOOOOOOOOOOOOOOOOOOOOOOOOOOOOOOOOOOOOOOOOOO. OOoooXXXX",
"XXXXoo                                               . OOoooXXXX",
"XXXXoo................................................ OOoooXXXX",
"XXXXooOOOOOOOOOOOOOOOOOOOOOOOOOOOOOOOOOOOOOOOOOOOOOOOOOOOoooXXXX",
"XXXXooooooooooooooooooooooooooooooooooooooooooooooooooooooooXXXX",
"XXXXooooooooooooooooooooooooooooooooooooooooooooooooooooooooXXXX"
};
