/* XPM */
static char *_e0f37b07ad241a2b50fad0d336d02bfNhTWX6dhRMsKlmaY[] = {
/* columns rows colors chars-per-pixel */
"64 64 10 1 ",
"  c #393939",
". c #442503",
"X c #4F2C04",
"o c #492C0D",
"O c #56340C",
"+ c gray36",
"@ c #626262",
"# c #676767",
"$ c #797979",
"% c #898989",
/* pixels */
"XXXOOXXOOXXXXXXXXXXXXXOOOXXXXXXOOXXOOOXXOOXXXXXOOXXXXXOXXOOXXXXX",
"XOOXXXXXXOOXOXOXOOOXOOXXXXOOXOOXXOOOXXXXXOOOXOOXXXXOOOXOOXXOOXXO",
"XXXXOOOOXXXXXOOXXXXOOOXOXXXXXXXXXXXXXXOOXXXXXXXXOOXXXXXXXXOOXXXX",
"OOOXXXXXOOOOXXXOOOXXXXXOOOXOOXXOOOXXOOOXOOXXOOOOXXXXOOXOOXXXXOOO",
"XXXXOOXXXXXXOOXXXXXOOXXXXXOXXXXXXXOOXXXXXXXXXXXXXOOXXXXXXXXXXXXX",
"oooooooooooooooooooooooooooooooooooooooooooooooooooooooooooooooo",
"................................................................",
"oooooo.######.oXo.########+@+########+@+######.oXo.+++###.oooooo",
"XXXXXo.++++#.oXo.########+@@+########+@+#######.oXo.+@+++.oXXXXX",
"OXXOXo.@@@+.oXo.@++##++++@@+#########+@@++######.oXo.@@@@.oOXXOX",
"OXXOXo.+++.oXo.+@@@++@@@@@@+++######+@@@@@++####+.oXo.+++.oOXXOX",
"XOXXXo.##.oXo.##+++@@@++++@@@@++##++@@+++@@@+##+@+.oXo.#+.oXOXXX",
"XOXOXo.#.oXo.######+@+####+@@@@@++@@@+###+@@@++@@+#.oXo.+.oXOXOX",
"XXXOOo..oXo.+#####+@@+#####+++@@@@@++#####+@@@@@+###.oXo..oXXXOO",
"XXXXOo.oXo.@@++++++@@@++####+@@@+@+######+@@+++@+####.oXo.oXXXXO",
"XXXOOo.Xo.++@@@@@@@+++@@++++@@+++@+#####+@@+##+@+#+++@.oX.oXXXOO",
"XOXOXo.o.###++++@@@+##+@@@@@@++#+@@++##+@@+####+@+@@@+#.o.oXOXOX",
"XOXOXo..########+@@@+##+++@@+####++@@++@@+#####+@@@++###..oXOXOX",
"OXXXXo.########+@@@@+#####+@+######++@@++######+@++######.oOXXXX",
"OXXOXo.###+++++@@@@@+###++@@+#######+@+#######+@+########.oOXXOX",
"XOXXXo.+++@@@@@@@+++####+@@@@++#####+@+######++@+++######.oXOXXX",
"XOXOOo.@@@@+++++@@+#####+@@++@@+####+@+++###+@@@@@@++####.oXOXOO",
"XOXXOo.++++#####+@+####+@@+##+@@+##++@@@@+++@+++++@@+####.oXOXXO",
"XOXXOo.#########+@@+##+@@+####+@@+++@@+++@@@++####+@@++++.oXOXXO",
"OXXOXo.#######++@@@@+++@+######+@@@@@+###+@@@@+####++@@@@.oOXXOX",
"OXXOXo.######+@@@++@@@@@+#######+@@@@@+++@@++@@+#####++++.oOXXOX",
"XOXXXo.++###+@@++##+++@@@++######+@@@@@@@++##+@@++#######.oXOXXX",
"OOXOXo.@@+++@@+#######+@@@@++#####+@@++++#####+@@@+++++++.oOOXOX",
"XOXOXo.+@@@@@+########+@@+@@@+###+@@+#########+@@@@@@@@@@.oXOXOX",
"XOXXXo.#++++@+#######+@@+#++@@+#+@@+#########+@@@+++++++@.oXOXXX",
"XXOXXo.####+@@++##++++@+####+@@+@@+#########+@@@+#######+.oXXOXX",
"XXOXOo.#####+@@@++@@@@@+#####+@@@@+####+++#+@@++#########.oXXOXO",
"OXXXOo.######+@@@@@+@@+######+@+@@@++++@@@++@@+#########+.oOXXXO",
"OXOXOo.######+@@+++#+@+######+@+++@@@@@@@@@@@+#########+@.oOXOXO",
"OXXXXo.#####+@@+####+@+######+@+##+++@@@+@@@@+###++++++@@.oOXXXX",
"XOXOXo.++++++@@+####+@+#####+@@+#####+@+#+++@+##+@@@@@@@+.oXOXOX",
"XOXXXo.@@@@@@@@+####+@+#####+@+######+@+###+@+#+@@@@@@@+#.oXOXXX",
"XOXOXo.++++++@@+####+@@++##+@@+#####+@@+####+@+@@@+++++##.oXOXOX",
"XXXXOo.######+@+###+@@@@@+++@+####++@@@@+###+@@@@+#######.oXXXXO",
"XOXXOo.#####+@@+###+@++@@@@@@@++#+@@@@@@+####+@@@++######.oXOXXO",
"OOXOXo.#####+@@+##+@+##++@@@@@@@+@@+++@@+#####+@@@@+###++.oOOXOX",
"OXXOXo.#####+@+###+@+####+++@++@@@+##+@@+#####+@@@@+#++@@.oOXXOX",
"OOXOXo.####+@@+##+@+######+@@+#+@@+##+@@+####+@@++@@+@@++.oOOXOX",
"XOXOXo.####+@+##+@+######+@@+###+@+###+@@++++@@+##+@@@+##.oXOXOX",
"XOXXOo.####+@+##+@@++++++@@+####+@+####+@@@@@@+####+@@@+#.oXOXXO",
"XOXXO       @@++@@@@@@@@@@+#####+@@+####+@+@@+#####+@@@@+.oXOXXO",
"XXOO +++++++  @@@@@++++@+@@+#####+@++++#+@++@+####+@@++@@.oXXOOO",
"XXO +$######++  @++###+@++@+#####+@@@@@+@@+#+@+##+@@+##++.oXXOXX",
"XO +##$%######++  ####+@++@      +@@@@@@@+##+@+#+@@+#####.oXOXXO",
"XO +####%#######++  ##+@+# ++++++  ++@@@+###+@+++@+######.oXOXXO",
"X +####%#%$###%$#$++ +@@+ +######++  +@@+###+@@@+@+######.oXXOOX",
"X +###%$##%##%###$##  @+ +%########++ @+#####++@@@+######.oXXOXX",
" +###%####$%$####$%#+ @ +#$%$$%$#####+ +#######+@+#######.oXXXXO",
" +##$$######%#####%##+ +########%$####+ #######+@+####       XXO",
" +##$#######$%####$%#+ +#########%###$$ @    ##+@@+++ +++++++  X",
"+###       ##%#####%##+ +########$%$%$#+ ++++      @@ +%$####+  ",
"##  +++++++ #$######$#+ +########%####+ +####++++++ @ +#$$#### +",
"# ++#######+  ######%##+ +#####%$####+ +#$#####$%%$+ +###%#### #",
" +##########++  ###%####+ +##%$#%###+ +###%##%%$###+ +###$%### #",
" +############++ ##$#####+ +$####%#+ +####$%$$#####+ +####$$##  ",
"+##############+ #$#       +$#####$+ +#####     ####+ ##  #%# ++",
"################+ $ ++++++     ####+    ## +++++ ###+   ++ $ +##",
"#################+ +######+ ++  #    +++  +#####+  # +++##+ +###",
"#################+ +######+ ###  ## +###+ +######++ +######+ +##"
};
